<?xml version="1.0" encoding="UTF-8" standalone="no"?>
<!-- Created with Inkscape (http://www.inkscape.org/) -->

<svg
   xmlns:dc="http://purl.org/dc/elements/1.1/"
   xmlns:cc="http://creativecommons.org/ns#"
   xmlns:rdf="http://www.w3.org/1999/02/22-rdf-syntax-ns#"
   xmlns:svg="http://www.w3.org/2000/svg"
   xmlns="http://www.w3.org/2000/svg"
   xmlns:sodipodi="http://sodipodi.sourceforge.net/DTD/sodipodi-0.dtd"
   xmlns:inkscape="http://www.inkscape.org/namespaces/inkscape"
   width="97.151283mm"
   height="11.362045mm"
   viewBox="0 0 344.23682 40.259213"
   id="svg2"
   version="1.1"
   inkscape:version="0.91 r13725"
   sodipodi:docname="honeysens-wortmarke-path.svg"
   inkscape:export-filename="/home/sylence/honeysens-logo.png"
   inkscape:export-xdpi="640.16425"
   inkscape:export-ydpi="640.16425">
  <defs
     id="defs4" />
  <sodipodi:namedview
     id="base"
     pagecolor="#ffffff"
     bordercolor="#666666"
     borderopacity="1.0"
     inkscape:pageopacity="0.0"
     inkscape:pageshadow="2"
     inkscape:zoom="2.2118743"
     inkscape:cx="138.37499"
     inkscape:cy="33.329982"
     inkscape:document-units="px"
     inkscape:current-layer="layer1"
     showgrid="true"
     showguides="true"
     inkscape:guide-bbox="true"
     inkscape:window-width="1886"
     inkscape:window-height="1142"
     inkscape:window-x="1695"
     inkscape:window-y="39"
     inkscape:window-maximized="0"
     inkscape:snap-nodes="true"
     inkscape:snap-global="true"
     fit-margin-top="0"
     fit-margin-left="0"
     fit-margin-right="0"
     fit-margin-bottom="0">
    <inkscape:grid
       type="xygrid"
       id="grid3336"
       snapvisiblegridlinesonly="true"
       dotted="true"
       originx="-1200.1207"
       originy="-354.81948" />
    <sodipodi:guide
       position="54.879426,40.180469"
       orientation="0,1"
       id="guide4925" />
    <sodipodi:guide
       position="79.879386,0.18049028"
       orientation="0,1"
       id="guide4927" />
  </sodipodi:namedview>
  <metadata
     id="metadata7">
    <rdf:RDF>
      <cc:Work
         rdf:about="">
        <dc:format>image/svg+xml</dc:format>
        <dc:type
           rdf:resource="http://purl.org/dc/dcmitype/StillImage" />
        <dc:title></dc:title>
      </cc:Work>
    </rdf:RDF>
  </metadata>
  <g
     inkscape:label="Ebene 1"
     inkscape:groupmode="layer"
     id="layer1"
     transform="translate(-1200.1205,-657.28348)">
    <text
       xml:space="preserve"
       style="font-style:normal;font-weight:normal;font-size:40px;line-height:125%;font-family:Sans;letter-spacing:0px;word-spacing:0px;fill:#000000;fill-opacity:1;stroke:none;stroke-width:1px;stroke-linecap:butt;stroke-linejoin:miter;stroke-opacity:1"
       x="30"
       y="362.36221"
       id="text3348"
       sodipodi:linespacing="125%"><tspan
         sodipodi:role="line"
         id="tspan3350"
         x="30"
         y="362.36221" /></text>
    <text
       xml:space="preserve"
       style="font-style:normal;font-weight:normal;font-size:40px;line-height:125%;font-family:Sans;letter-spacing:0px;word-spacing:0px;fill:#000000;fill-opacity:1;stroke:none;stroke-width:1px;stroke-linecap:butt;stroke-linejoin:miter;stroke-opacity:1"
       x="-362.73264"
       y="588.75684"
       id="text3348-3"
       sodipodi:linespacing="125%"><tspan
         sodipodi:role="line"
         id="tspan3350-0"
         x="-362.73264"
         y="588.75684" /></text>
    <flowRoot
       xml:space="preserve"
       id="flowRoot3940"
       style="font-style:normal;font-weight:normal;font-size:40px;line-height:125%;font-family:sans-serif;letter-spacing:0px;word-spacing:0px;fill:#000000;fill-opacity:1;stroke:none;stroke-width:1px;stroke-linecap:butt;stroke-linejoin:miter;stroke-opacity:1"><flowRegion
         id="flowRegion3942"><rect
           id="rect3944"
           width="1040"
           height="320"
           x="-159.80243"
           y="138.3773" /></flowRegion><flowPara
         id="flowPara3946" /></flowRoot>    <g
       style="font-style:normal;font-weight:normal;font-size:54.61535645px;line-height:125%;font-family:sans-serif;letter-spacing:0px;word-spacing:0px;fill:#000000;fill-opacity:1;stroke:none;stroke-width:1px;stroke-linecap:butt;stroke-linejoin:miter;stroke-opacity:1"
       id="text3948">
      <path
         d="m 1321.1912,657.7991 q 0.6008,0 0.9285,0.3823 0.3823,0.38231 0.3823,0.92847 l 0,5.3523 q 0,1.03769 -0.9831,1.31077 l -1.8023,0.43692 0,29.76537 q 0,0.60077 -0.3823,0.98308 -0.3823,0.32769 -0.9285,0.32769 l -11.7423,0 q -0.7646,0 -1.2015,-0.71 l -13.2715,-26.16076 0.4369,18.45999 1.8569,0.49154 q 0.4369,0.10923 0.71,0.49154 0.2731,0.32769 0.2731,0.76462 l 0,5.3523 q 0,0.60077 -0.3823,0.98308 -0.3823,0.32769 -0.9831,0.32769 l -12.6707,0 q -0.5462,0 -0.9285,-0.32769 -0.3823,-0.38231 -0.3823,-0.98308 l 0,-5.3523 q 0,-0.98308 0.9831,-1.25616 l 1.8023,-0.49154 0,-22.66537 -1.8023,-0.43692 q -0.9831,-0.27308 -0.9831,-1.31077 l 0,-5.3523 q 0,-0.54616 0.3823,-0.92847 0.3823,-0.3823 0.9285,-0.3823 l 14.5276,0 q 0.7647,0 1.147,0.71 l 13.3807,26.10614 -0.4369,-18.40538 -1.8569,-0.43692 q -0.9831,-0.27308 -0.9831,-1.31077 l 0,-5.3523 q 0,-0.54616 0.3823,-0.92847 0.3823,-0.3823 0.9285,-0.3823 l 12.6707,0 0,0 z"
         style="font-style:normal;font-variant:normal;font-weight:normal;font-stretch:normal;font-size:54.61535645px;line-height:125%;font-family:'Chateau de Garage';-inkscape-font-specification:'Chateau de Garage, Normal';text-align:start;writing-mode:lr-tb;text-anchor:start;fill:#000000"
         id="path5797" />
      <path
         d="m 1354.5757,685.81677 q 0.5462,0 0.9285,0.38231 0.3823,0.38231 0.3823,0.92846 l 0,8.84769 q 0,0.60077 -0.3823,0.98308 -0.3823,0.32769 -0.9285,0.32769 l -28.2361,0 q -0.5462,0 -0.9285,-0.38231 -0.3823,-0.38231 -0.3823,-0.92846 l 0,-5.3523 q 0,-0.98308 0.9831,-1.25616 l 1.8023,-0.49154 0,-22.66537 -1.8023,-0.49154 q -0.4369,-0.10923 -0.71,-0.43692 -0.2731,-0.38231 -0.2731,-0.81923 l 0,-5.3523 q 0,-0.43693 0.3823,-0.92847 0.3823,-0.3823 0.9285,-0.3823 l 28.0723,0 q 0.5461,0 0.9284,0.3823 0.3823,0.38231 0.3823,0.92847 l 0,8.84768 q 0,0.54616 -0.3823,0.92846 -0.3823,0.38231 -0.9284,0.38231 l -5.3523,0 q -0.437,0 -0.8193,-0.27308 -0.3277,-0.27307 -0.4369,-0.70999 l -0.4915,-1.80231 -9.7762,0 0,6.55384 8.6293,0 q 0.6007,0 0.9284,0.38231 0.3823,0.38231 0.3823,0.92846 l 0,5.78923 q 0,0.60077 -0.3823,0.98307 -0.3277,0.38231 -0.9284,0.38231 l -8.6293,0 0,7.1 9.94,0 0.4916,-1.80231 q 0.1092,-0.43692 0.4369,-0.71 0.3823,-0.27308 0.8192,-0.27308 l 5.3523,0 z"
         style="font-style:normal;font-variant:normal;font-weight:normal;font-stretch:normal;font-size:54.61535645px;line-height:125%;font-family:'Chateau de Garage';-inkscape-font-specification:'Chateau de Garage, Normal';text-align:start;writing-mode:lr-tb;text-anchor:start;fill:#000000"
         id="path5799" />
      <path
         d="m 1392.6452,657.74448 q 0.5461,0 0.9284,0.38231 0.3824,0.32769 0.3824,0.92846 l 0,5.35231 q 0,0.98307 -0.9831,1.25615 l -2.13,0.54615 -9.5577,15.89307 0,6.66307 q 0.3823,0.10923 0.8192,0.21847 0.4916,0.0546 0.9285,0.27307 0.4369,0.16385 0.71,0.49154 0.3277,0.27308 0.3277,0.76462 l 0,5.3523 q 0,0.60077 -0.3823,0.98308 -0.3823,0.32769 -0.9285,0.32769 l -12.6708,0 q -0.5461,0 -0.9284,-0.32769 -0.3823,-0.38231 -0.3823,-0.98308 l 0,-5.3523 q 0,-0.49154 0.2731,-0.76462 0.3276,-0.32769 0.7646,-0.49154 0.4369,-0.21846 0.9284,-0.27307 0.4916,-0.10924 0.8739,-0.21847 l 0,-6.66307 -9.3393,-15.89307 -2.2392,-0.54615 q -0.4369,-0.10923 -0.71,-0.49154 -0.2731,-0.38231 -0.2731,-0.81923 l 0,-5.35231 q 0,-0.54615 0.3823,-0.92846 0.3824,-0.3823 0.9285,-0.3823 l 13.4354,0 q 0.5461,0 0.9284,0.3823 0.3824,0.38231 0.3824,0.92846 l 0,5.35231 q 0,0.92846 -0.71,1.20154 -0.71,0.21846 -1.42,0.38231 l 3.4953,6.28076 3.55,-6.28076 q -0.71,-0.16385 -1.42,-0.38231 -0.71,-0.21846 -0.71,-1.14692 l 0,-5.35231 q 0,-0.60077 0.3823,-0.92846 0.3824,-0.38231 0.9285,-0.38231 l 13.4354,0 0,0 z"
         style="font-style:normal;font-variant:normal;font-weight:normal;font-stretch:normal;font-size:54.61535645px;line-height:125%;font-family:'Chateau de Garage';-inkscape-font-specification:'Chateau de Garage, Normal';text-align:start;writing-mode:lr-tb;text-anchor:start;fill:#000000"
         id="path5801" />
      <path
         d="m 1406.9169,669.15909 q 0,0.27308 0,0.71 0,0.43692 0.055,0.87385 0.055,0.43692 0.2184,0.81923 0.1639,0.3823 0.437,0.54615 0.4369,0.27308 1.2561,0.43692 0.8192,0.10923 1.7477,0.21846 0.9285,0.0546 1.8023,0.10924 0.8739,0.0546 1.3654,0.0546 1.3108,0.10923 2.9492,0.21846 1.6385,0.0546 3.2769,0.32769 1.6931,0.21847 3.2223,0.65539 1.5839,0.38231 2.6762,1.09231 1.0923,0.71 1.7477,1.63846 0.6554,0.92846 1.0923,2.13 0.4915,1.36538 0.6008,2.94922 0.1092,1.58385 0.1092,3.00385 0,4.26 -1.0923,6.7723 -1.0377,2.51231 -3.0585,3.82308 -2.0207,1.25615 -4.97,1.63846 -2.8946,0.32769 -6.5538,0.32769 -3.3862,0 -6.4446,-0.21846 -3.0585,-0.21846 -5.3523,-1.31077 -2.2939,-1.09231 -3.6593,-3.44077 -1.3107,-2.40307 -1.3107,-6.66307 0,-0.38231 0,-0.92846 -0.055,-0.54615 0,-0.98308 0.1092,-0.49154 0.3823,-0.81923 0.3277,-0.32769 0.9284,-0.32769 l 7.1,0 q 0.9831,0 1.147,0.76462 0.2184,0.70999 0.1638,1.69307 0,0.98308 0.055,1.91154 0.1093,0.92846 0.9285,1.31077 0.4915,0.27307 1.2561,0.3823 0.8193,0.10924 1.6931,0.16385 0.8739,0.0546 1.6931,0.0546 0.8738,0 1.42,0 0.4369,0 1.1469,0 0.7646,0 1.5292,-0.0546 0.8193,-0.10923 1.4747,-0.27308 0.71,-0.21846 1.0923,-0.54615 0.6007,-0.49154 0.6554,-1.52923 0.1092,-1.03769 0.1092,-1.74769 0,-0.65539 -0.1639,-1.58385 -0.1092,-0.98307 -0.7646,-1.36538 -0.4915,-0.21846 -1.3107,-0.32769 -0.7647,-0.16385 -1.6931,-0.16385 -0.8739,-0.0546 -1.7477,-0.0546 -0.8739,-0.0546 -1.42,-0.0546 -3.4408,-0.16385 -6.3354,-0.54615 -2.84,-0.38231 -4.8608,-1.58385 -2.0207,-1.20154 -3.1677,-3.55 -1.0923,-2.34846 -1.0923,-6.55384 0,-4.26 1.3108,-6.60846 1.3108,-2.34846 3.55,-3.49538 2.2392,-1.14692 5.2431,-1.36538 3.0038,-0.27308 6.4446,-0.27308 3.2223,0 5.9531,0.32769 2.7307,0.27308 4.7515,1.42 2.0208,1.14692 3.1131,3.38615 1.1469,2.23923 1.1469,6.11692 0,0.38231 0,0.81923 0,0.43693 -0.1092,0.81923 -0.1093,0.38231 -0.3823,0.65539 -0.2731,0.21846 -0.8193,0.21846 l -7.1,0 q -0.9284,0 -1.1469,-0.65539 -0.2184,-0.65538 -0.2184,-1.47461 0,-0.87385 -0.055,-1.69308 0,-0.81923 -0.6007,-1.0923 -0.3823,-0.16385 -0.9831,-0.27308 -0.6008,-0.10923 -1.2562,-0.10923 -0.6553,-0.0546 -1.2561,-0.0546 -0.6008,0 -1.0377,0 -0.5462,0 -1.42,0 -0.8192,0 -1.6931,0.10924 -0.8738,0.0546 -1.6931,0.21846 -0.8192,0.10923 -1.2561,0.32769 -0.6008,0.38231 -0.71,1.25615 -0.1092,0.81923 -0.1092,1.42 z"
         style="font-style:normal;font-variant:normal;font-weight:normal;font-stretch:normal;font-size:54.61535645px;line-height:125%;font-family:'Chateau de Garage';-inkscape-font-specification:'Chateau de Garage, Normal';text-align:start;writing-mode:lr-tb;text-anchor:start;fill:#000000"
         id="path5803" />
      <path
         d="m 1462.5264,685.81677 q 0.5461,0 0.9284,0.38231 0.3824,0.38231 0.3824,0.92846 l 0,8.84769 q 0,0.60077 -0.3824,0.98308 -0.3823,0.32769 -0.9284,0.32769 l -28.2362,0 q -0.5461,0 -0.9284,-0.38231 -0.3823,-0.38231 -0.3823,-0.92846 l 0,-5.3523 q 0,-0.98308 0.9831,-1.25616 l 1.8023,-0.49154 0,-22.66537 -1.8023,-0.49154 q -0.437,-0.10923 -0.71,-0.43692 -0.2731,-0.38231 -0.2731,-0.81923 l 0,-5.3523 q 0,-0.43693 0.3823,-0.92847 0.3823,-0.3823 0.9284,-0.3823 l 28.0723,0 q 0.5462,0 0.9285,0.3823 0.3823,0.38231 0.3823,0.92847 l 0,8.84768 q 0,0.54616 -0.3823,0.92846 -0.3823,0.38231 -0.9285,0.38231 l -5.3523,0 q -0.4369,0 -0.8192,-0.27308 -0.3277,-0.27307 -0.4369,-0.70999 l -0.4916,-1.80231 -9.7761,0 0,6.55384 8.6292,0 q 0.6008,0 0.9285,0.38231 0.3823,0.38231 0.3823,0.92846 l 0,5.78923 q 0,0.60077 -0.3823,0.98307 -0.3277,0.38231 -0.9285,0.38231 l -8.6292,0 0,7.1 9.94,0 0.4915,-1.80231 q 0.1093,-0.43692 0.4369,-0.71 0.3824,-0.27308 0.8193,-0.27308 l 5.3523,0 z"
         style="font-style:normal;font-variant:normal;font-weight:normal;font-stretch:normal;font-size:54.61535645px;line-height:125%;font-family:'Chateau de Garage';-inkscape-font-specification:'Chateau de Garage, Normal';text-align:start;writing-mode:lr-tb;text-anchor:start;fill:#000000"
         id="path5805" />
      <path
         d="m 1508.0781,657.7991 q 0.6008,0 0.9285,0.3823 0.3823,0.38231 0.3823,0.92847 l 0,5.3523 q 0,1.03769 -0.9831,1.31077 l -1.8023,0.43692 0,29.76537 q 0,0.60077 -0.3823,0.98308 -0.3823,0.32769 -0.9284,0.32769 l -11.7423,0 q -0.7647,0 -1.2016,-0.71 l -13.2715,-26.16076 0.4369,18.45999 1.8569,0.49154 q 0.437,0.10923 0.71,0.49154 0.2731,0.32769 0.2731,0.76462 l 0,5.3523 q 0,0.60077 -0.3823,0.98308 -0.3823,0.32769 -0.9831,0.32769 l -12.6707,0 q -0.5462,0 -0.9285,-0.32769 -0.3823,-0.38231 -0.3823,-0.98308 l 0,-5.3523 q 0,-0.98308 0.9831,-1.25616 l 1.8023,-0.49154 0,-22.66537 -1.8023,-0.43692 q -0.9831,-0.27308 -0.9831,-1.31077 l 0,-5.3523 q 0,-0.54616 0.3823,-0.92847 0.3823,-0.3823 0.9285,-0.3823 l 14.5277,0 q 0.7646,0 1.1469,0.71 l 13.3807,26.10614 -0.4369,-18.40538 -1.8569,-0.43692 q -0.9831,-0.27308 -0.9831,-1.31077 l 0,-5.3523 q 0,-0.54616 0.3823,-0.92847 0.3823,-0.3823 0.9285,-0.3823 l 12.6707,0 0,0 z"
         style="font-style:normal;font-variant:normal;font-weight:normal;font-stretch:normal;font-size:54.61535645px;line-height:125%;font-family:'Chateau de Garage';-inkscape-font-specification:'Chateau de Garage, Normal';text-align:start;writing-mode:lr-tb;text-anchor:start;fill:#000000"
         id="path5807" />
      <path
         d="m 1521.8011,669.15909 q 0,0.27308 0,0.71 0,0.43692 0.055,0.87385 0.055,0.43692 0.2185,0.81923 0.1638,0.3823 0.4369,0.54615 0.4369,0.27308 1.2562,0.43692 0.8192,0.10923 1.7477,0.21846 0.9284,0.0546 1.8023,0.10924 0.8738,0.0546 1.3654,0.0546 1.3107,0.10923 2.9492,0.21846 1.6384,0.0546 3.2769,0.32769 1.6931,0.21847 3.2223,0.65539 1.5839,0.38231 2.6762,1.09231 1.0923,0.71 1.7477,1.63846 0.6553,0.92846 1.0923,2.13 0.4915,1.36538 0.6007,2.94922 0.1093,1.58385 0.1093,3.00385 0,4.26 -1.0923,6.7723 -1.0377,2.51231 -3.0585,3.82308 -2.0208,1.25615 -4.97,1.63846 -2.8946,0.32769 -6.5538,0.32769 -3.3862,0 -6.4447,-0.21846 -3.0584,-0.21846 -5.3523,-1.31077 -2.2938,-1.09231 -3.6592,-3.44077 -1.3108,-2.40307 -1.3108,-6.66307 0,-0.38231 0,-0.92846 -0.055,-0.54615 0,-0.98308 0.1093,-0.49154 0.3823,-0.81923 0.3277,-0.32769 0.9285,-0.32769 l 7.1,0 q 0.9831,0 1.1469,0.76462 0.2185,0.70999 0.1639,1.69307 0,0.98308 0.055,1.91154 0.1092,0.92846 0.9285,1.31077 0.4915,0.27307 1.2561,0.3823 0.8192,0.10924 1.6931,0.16385 0.8738,0.0546 1.6931,0.0546 0.8738,0 1.42,0 0.4369,0 1.1469,0 0.7646,0 1.5292,-0.0546 0.8192,-0.10923 1.4746,-0.27308 0.71,-0.21846 1.0923,-0.54615 0.6008,-0.49154 0.6554,-1.52923 0.1092,-1.03769 0.1092,-1.74769 0,-0.65539 -0.1638,-1.58385 -0.1092,-0.98307 -0.7646,-1.36538 -0.4916,-0.21846 -1.3108,-0.32769 -0.7646,-0.16385 -1.6931,-0.16385 -0.8738,-0.0546 -1.7477,-0.0546 -0.8738,-0.0546 -1.42,-0.0546 -3.4407,-0.16385 -6.3353,-0.54615 -2.84,-0.38231 -4.8608,-1.58385 -2.0208,-1.20154 -3.1677,-3.55 -1.0923,-2.34846 -1.0923,-6.55384 0,-4.26 1.3108,-6.60846 1.3107,-2.34846 3.55,-3.49538 2.2392,-1.14692 5.243,-1.36538 3.0039,-0.27308 6.4447,-0.27308 3.2223,0 5.953,0.32769 2.7308,0.27308 4.7516,1.42 2.0207,1.14692 3.113,3.38615 1.147,2.23923 1.147,6.11692 0,0.38231 0,0.81923 0,0.43693 -0.1093,0.81923 -0.1092,0.38231 -0.3823,0.65539 -0.2731,0.21846 -0.8192,0.21846 l -7.1,0 q -0.9285,0 -1.1469,-0.65539 -0.2185,-0.65538 -0.2185,-1.47461 0,-0.87385 -0.055,-1.69308 0,-0.81923 -0.6008,-1.0923 -0.3823,-0.16385 -0.983,-0.27308 -0.6008,-0.10923 -1.2562,-0.10923 -0.6554,-0.0546 -1.2562,-0.0546 -0.6007,0 -1.0376,0 -0.5462,0 -1.42,0 -0.8193,0 -1.6931,0.10924 -0.8739,0.0546 -1.6931,0.21846 -0.8192,0.10923 -1.2561,0.32769 -0.6008,0.38231 -0.71,1.25615 -0.1093,0.81923 -0.1093,1.42 z"
         style="font-style:normal;font-variant:normal;font-weight:normal;font-stretch:normal;font-size:54.61535645px;line-height:125%;font-family:'Chateau de Garage';-inkscape-font-specification:'Chateau de Garage, Normal';text-align:start;writing-mode:lr-tb;text-anchor:start;fill:#000000"
         id="path5809" />
    </g>
    <path
       sodipodi:nodetypes="ccscsc"
       inkscape:connector-curvature="0"
       id="path6435"
       d="m 1246.3641,662.42032 c 8.654,-0.84209 17.308,-0.85653 25.962,0 l 0,14.75405 c 0,10.42838 -7.07,13.11038 -12.981,15.53059 -5.9895,-2.27857 -12.981,-5.06693 -12.981,-15.53059 z"
       style="fill:none;fill-opacity:0;fill-rule:evenodd;stroke:#d9230f;stroke-width:9;stroke-linecap:butt;stroke-linejoin:miter;stroke-miterlimit:4;stroke-dasharray:none;stroke-opacity:1" />
    <g
       style="font-style:normal;font-weight:normal;font-size:54.61535645px;line-height:125%;font-family:sans-serif;letter-spacing:0px;word-spacing:0px;fill:#000000;fill-opacity:1;stroke:none;stroke-width:1px;stroke-linecap:butt;stroke-linejoin:miter;stroke-opacity:1"
       id="text5741">
      <path
         d="m 1235.7843,666.20986 0,22.66537 1.8023,0.49154 q 0.9831,0.27308 0.9831,1.25616 l 0,5.3523 q 0,0.60077 -0.3823,0.98308 -0.3823,0.32769 -0.9285,0.32769 l -12.6707,0 q -0.6008,0 -0.9831,-0.32769 -0.3277,-0.38231 -0.3277,-0.98308 l 0,-5.3523 q 0,-0.98308 0.9831,-1.25616 l 1.8023,-0.49154 0,-7.31845 -13.4354,0 0,7.31845 1.8569,0.49154 q 0.4369,0.10923 0.71,0.49154 0.2731,0.32769 0.2731,0.76462 l 0,5.3523 q 0,0.60077 -0.3823,0.98308 -0.3823,0.32769 -0.9831,0.32769 l -12.6707,0 q -0.5462,0 -0.9285,-0.32769 -0.3823,-0.38231 -0.3823,-0.98308 l 0,-5.3523 q 0,-0.98308 0.9831,-1.25616 l 1.8023,-0.49154 0,-22.66537 -1.8023,-0.43692 q -0.9831,-0.27308 -0.9831,-1.31077 l 0,-5.3523 q 0,-0.54616 0.3823,-0.92847 0.3823,-0.3823 0.9285,-0.3823 l 12.6707,0 q 0.6008,0 0.9831,0.3823 0.3823,0.38231 0.3823,0.92847 l 0,5.3523 q 0,0.43692 -0.2731,0.81923 -0.2731,0.38231 -0.71,0.49154 l -1.8569,0.43692 0,6.66308 13.4354,0 0,-6.66308 -1.8023,-0.43692 q -0.9831,-0.27308 -0.9831,-1.31077 l 0,-5.3523 q 0,-0.54616 0.3823,-0.92847 0.3823,-0.3823 0.9285,-0.3823 l 12.6707,0 q 0.5462,0 0.9285,0.3823 0.3823,0.38231 0.3823,0.92847 l 0,5.3523 q 0,1.03769 -0.9831,1.31077 l -1.8023,0.43692 z"
         style="font-style:normal;font-variant:normal;font-weight:normal;font-stretch:normal;font-size:54.61535645px;line-height:125%;font-family:'Chateau de Garage';-inkscape-font-specification:'Chateau de Garage, Normal';text-align:start;writing-mode:lr-tb;text-anchor:start;fill:#000000"
         id="path5794" />
    </g>
  </g>
</svg>
