<?xml version="1.0" encoding="UTF-8" standalone="no"?>
<!-- Created with Inkscape (http://www.inkscape.org/) -->

<svg
   xmlns:dc="http://purl.org/dc/elements/1.1/"
   xmlns:cc="http://creativecommons.org/ns#"
   xmlns:rdf="http://www.w3.org/1999/02/22-rdf-syntax-ns#"
   xmlns:svg="http://www.w3.org/2000/svg"
   xmlns="http://www.w3.org/2000/svg"
   xmlns:xlink="http://www.w3.org/1999/xlink"
   xmlns:sodipodi="http://sodipodi.sourceforge.net/DTD/sodipodi-0.dtd"
   xmlns:inkscape="http://www.inkscape.org/namespaces/inkscape"
   width="940.79889"
   height="257.44574"
   id="svg2"
   sodipodi:version="0.32"
   inkscape:version="0.92.1 r15371"
   version="1.0"
   sodipodi:docname="nat.svg"
   inkscape:output_extension="org.inkscape.output.svg.inkscape"
   inkscape:export-filename="/home/sylence/projects/HoneySens/honeysens-website/static/images/nat.png"
   inkscape:export-xdpi="320"
   inkscape:export-ydpi="320"
   style="enable-background:new">
  <defs
     id="defs4">
    <marker
       inkscape:stockid="Arrow1Mstart"
       orient="auto"
       refY="0.0"
       refX="0.0"
       id="marker6382"
       style="overflow:visible"
       inkscape:isstock="true">
      <path
         id="path6380"
         d="M 0.0,0.0 L 5.0,-5.0 L -12.5,0.0 L 5.0,5.0 L 0.0,0.0 z "
         style="fill-rule:evenodd;stroke:#ef2929;stroke-width:1pt;stroke-opacity:1;fill:#ef2929;fill-opacity:1"
         transform="scale(0.4) translate(10,0)" />
    </marker>
    <marker
       inkscape:stockid="Arrow1Mend"
       orient="auto"
       refY="0.0"
       refX="0.0"
       id="marker6378"
       style="overflow:visible;"
       inkscape:isstock="true">
      <path
         id="path6376"
         d="M 0.0,0.0 L 5.0,-5.0 L -12.5,0.0 L 5.0,5.0 L 0.0,0.0 z "
         style="fill-rule:evenodd;stroke:#ef2929;stroke-width:1pt;stroke-opacity:1;fill:#ef2929;fill-opacity:1"
         transform="scale(0.4) rotate(180) translate(10,0)" />
    </marker>
    <marker
       inkscape:stockid="Arrow1Mstart"
       orient="auto"
       refY="0.0"
       refX="0.0"
       id="marker6372"
       style="overflow:visible"
       inkscape:isstock="true">
      <path
         id="path6370"
         d="M 0.0,0.0 L 5.0,-5.0 L -12.5,0.0 L 5.0,5.0 L 0.0,0.0 z "
         style="fill-rule:evenodd;stroke:#ef2929;stroke-width:1pt;stroke-opacity:1;fill:#ef2929;fill-opacity:1"
         transform="scale(0.4) translate(10,0)" />
    </marker>
    <marker
       inkscape:stockid="Arrow1Mend"
       orient="auto"
       refY="0.0"
       refX="0.0"
       id="Arrow1Mend"
       style="overflow:visible;"
       inkscape:isstock="true">
      <path
         id="path6367"
         d="M 0.0,0.0 L 5.0,-5.0 L -12.5,0.0 L 5.0,5.0 L 0.0,0.0 z "
         style="fill-rule:evenodd;stroke:#ef2929;stroke-width:1pt;stroke-opacity:1;fill:#ef2929;fill-opacity:1"
         transform="scale(0.4) rotate(180) translate(10,0)" />
    </marker>
    <marker
       inkscape:stockid="Arrow1Mstart"
       orient="auto"
       refY="0.0"
       refX="0.0"
       id="Arrow1Mstart"
       style="overflow:visible"
       inkscape:isstock="true">
      <path
         id="path5019"
         d="M 0.0,0.0 L 5.0,-5.0 L -12.5,0.0 L 5.0,5.0 L 0.0,0.0 z "
         style="fill-rule:evenodd;stroke:#ef2929;stroke-width:1pt;stroke-opacity:1;fill:#ef2929;fill-opacity:1"
         transform="scale(0.4) translate(10,0)" />
    </marker>
    <marker
       inkscape:isstock="true"
       style="overflow:visible"
       id="marker6344"
       refX="0"
       refY="0"
       orient="auto"
       inkscape:stockid="Arrow1Mend">
      <path
         inkscape:connector-curvature="0"
         transform="matrix(-0.4,0,0,-0.4,-4,0)"
         style="fill:#ef2929;fill-opacity:1;fill-rule:evenodd;stroke:#ef2929;stroke-width:1.00000003pt;stroke-opacity:1"
         d="M 0,0 5,-5 -12.5,0 5,5 Z"
         id="path6342" />
    </marker>
    <marker
       inkscape:isstock="true"
       style="overflow:visible"
       id="marker5346"
       refX="0"
       refY="0"
       orient="auto"
       inkscape:stockid="Arrow1Mend">
      <path
         inkscape:connector-curvature="0"
         transform="matrix(-0.4,0,0,-0.4,-4,0)"
         style="fill:#ef2929;fill-opacity:1;fill-rule:evenodd;stroke:#ef2929;stroke-width:1.00000003pt;stroke-opacity:1"
         d="M 0,0 5,-5 -12.5,0 5,5 Z"
         id="path5344" />
    </marker>
    <marker
       inkscape:isstock="true"
       style="overflow:visible"
       id="marker5342"
       refX="0"
       refY="0"
       orient="auto"
       inkscape:stockid="Arrow1Mend">
      <path
         inkscape:connector-curvature="0"
         transform="matrix(-0.4,0,0,-0.4,-4,0)"
         style="fill:#ef2929;fill-opacity:1;fill-rule:evenodd;stroke:#ef2929;stroke-width:1.00000003pt;stroke-opacity:1"
         d="M 0,0 5,-5 -12.5,0 5,5 Z"
         id="path5340" />
    </marker>
    <marker
       inkscape:stockid="Arrow1Mend"
       orient="auto"
       refY="0"
       refX="0"
       id="marker5276"
       style="overflow:visible"
       inkscape:isstock="true"
       inkscape:collect="always">
      <path
         id="path5022"
         d="M 0,0 5,-5 -12.5,0 5,5 Z"
         style="fill:#ef2929;fill-opacity:1;fill-rule:evenodd;stroke:#ef2929;stroke-width:1.00000003pt;stroke-opacity:1"
         transform="matrix(-0.4,0,0,-0.4,-4,0)"
         inkscape:connector-curvature="0" />
    </marker>
    <marker
       inkscape:stockid="Arrow1Mend"
       orient="auto"
       refY="0"
       refX="0"
       id="marker8139"
       style="overflow:visible"
       inkscape:isstock="true">
      <path
         id="path8137"
         d="M 0,0 5,-5 -12.5,0 5,5 Z"
         style="fill:#ef2929;fill-opacity:1;fill-rule:evenodd;stroke:#ef2929;stroke-width:1.00000003pt;stroke-opacity:1"
         transform="matrix(-0.4,0,0,-0.4,-4,0)"
         inkscape:connector-curvature="0" />
    </marker>
    <marker
       inkscape:stockid="Arrow1Mend"
       orient="auto"
       refY="0"
       refX="0"
       id="marker8131"
       style="overflow:visible"
       inkscape:isstock="true">
      <path
         id="path8129"
         d="M 0,0 5,-5 -12.5,0 5,5 Z"
         style="fill:#ef2929;fill-opacity:1;fill-rule:evenodd;stroke:#ef2929;stroke-width:1.00000003pt;stroke-opacity:1"
         transform="matrix(-0.4,0,0,-0.4,-4,0)"
         inkscape:connector-curvature="0" />
    </marker>
    <marker
       inkscape:stockid="Arrow2Lend"
       orient="auto"
       refY="0"
       refX="0"
       id="Arrow2Lend"
       style="overflow:visible"
       inkscape:isstock="true">
      <path
         id="path7878"
         style="fill:#ef2929;fill-opacity:1;fill-rule:evenodd;stroke:#ef2929;stroke-width:0.625;stroke-linejoin:round;stroke-opacity:1"
         d="M 8.7185878,4.0337352 -2.2072895,0.01601326 8.7185884,-4.0017078 c -1.7454984,2.3720609 -1.7354408,5.6174519 -6e-7,8.035443 z"
         transform="matrix(-1.1,0,0,-1.1,-1.1,0)"
         inkscape:connector-curvature="0" />
    </marker>
    <marker
       inkscape:stockid="Arrow2Lstart"
       orient="auto"
       refY="0"
       refX="0"
       id="Arrow2Lstart"
       style="overflow:visible"
       inkscape:isstock="true">
      <path
         id="path7875"
         style="fill:#ef2929;fill-opacity:1;fill-rule:evenodd;stroke:#ef2929;stroke-width:0.625;stroke-linejoin:round;stroke-opacity:1"
         d="M 8.7185878,4.0337352 -2.2072895,0.01601326 8.7185884,-4.0017078 c -1.7454984,2.3720609 -1.7354408,5.6174519 -6e-7,8.035443 z"
         transform="matrix(1.1,0,0,1.1,1.1,0)"
         inkscape:connector-curvature="0" />
    </marker>
    <marker
       inkscape:stockid="Arrow1Lstart"
       orient="auto"
       refY="0"
       refX="0"
       id="Arrow1Lstart"
       style="overflow:visible"
       inkscape:isstock="true">
      <path
         id="path7857"
         d="M 0,0 5,-5 -12.5,0 5,5 Z"
         style="fill:#ef2929;fill-opacity:1;fill-rule:evenodd;stroke:#ef2929;stroke-width:1.00000003pt;stroke-opacity:1"
         transform="matrix(0.8,0,0,0.8,10,0)"
         inkscape:connector-curvature="0" />
    </marker>
    <marker
       inkscape:stockid="Arrow1Lend"
       orient="auto"
       refY="0"
       refX="0"
       id="Arrow1Lend"
       style="overflow:visible"
       inkscape:isstock="true">
      <path
         id="path7860"
         d="M 0,0 5,-5 -12.5,0 5,5 Z"
         style="fill:#ef2929;fill-opacity:1;fill-rule:evenodd;stroke:#ef2929;stroke-width:1.00000003pt;stroke-opacity:1"
         transform="matrix(-0.8,0,0,-0.8,-10,0)"
         inkscape:connector-curvature="0" />
    </marker>
    <linearGradient
       id="linearGradient4657">
      <stop
         id="stop4659"
         offset="0"
         style="stop-color:#ffffff;stop-opacity:0;" />
      <stop
         id="stop4661"
         offset="1"
         style="stop-color:#73d216;stop-opacity:1;" />
    </linearGradient>
    <linearGradient
       id="linearGradient3280">
      <stop
         style="stop-color:#ffffff;stop-opacity:0;"
         offset="0"
         id="stop3282" />
      <stop
         style="stop-color:#729fcf;stop-opacity:1;"
         offset="1"
         id="stop3284" />
    </linearGradient>
    <linearGradient
       inkscape:collect="always"
       xlink:href="#linearGradient4657"
       id="linearGradient4694"
       x1="1258.1261"
       y1="292.80933"
       x2="1257.9845"
       y2="557.52893"
       gradientUnits="userSpaceOnUse" />
    <linearGradient
       inkscape:collect="always"
       xlink:href="#aigrd43-7"
       id="linearGradient16076"
       gradientUnits="userSpaceOnUse"
       gradientTransform="matrix(0.9983,-0.05841583,0.05841583,0.9983,-6.1355,5.3535)"
       x1="87.867203"
       y1="99.068398"
       x2="87.920502"
       y2="107.0603" />
    <linearGradient
       y2="107.0603"
       x2="87.920502"
       y1="99.068398"
       x1="87.867203"
       gradientTransform="matrix(0.9983,-0.05841583,0.05841583,0.9983,-6.1355,5.3535)"
       gradientUnits="userSpaceOnUse"
       id="linearGradient16076-1"
       xlink:href="#aigrd43-7"
       inkscape:collect="always" />
    <linearGradient
       gradientUnits="userSpaceOnUse"
       y2="557.52893"
       x2="1257.9845"
       y1="292.80933"
       x1="1258.1261"
       id="linearGradient4694-1"
       xlink:href="#linearGradient4657-2"
       inkscape:collect="always" />
    <linearGradient
       id="linearGradient3280-0">
      <stop
         id="stop3282-3"
         offset="0"
         style="stop-color:#ffffff;stop-opacity:0;" />
      <stop
         id="stop3284-6"
         offset="1"
         style="stop-color:#729fcf;stop-opacity:1;" />
    </linearGradient>
    <linearGradient
       id="linearGradient4657-2">
      <stop
         style="stop-color:#ffffff;stop-opacity:0;"
         offset="0"
         id="stop4659-0" />
      <stop
         style="stop-color:#73d216;stop-opacity:1;"
         offset="1"
         id="stop4661-5" />
    </linearGradient>
    <linearGradient
       gradientUnits="userSpaceOnUse"
       y2="557.52893"
       x2="1257.9845"
       y1="292.80933"
       x1="1258.1261"
       id="linearGradient5187"
       xlink:href="#linearGradient4657"
       inkscape:collect="always" />
    <linearGradient
       y2="107.0603"
       x2="87.920502"
       y1="99.068398"
       x1="87.867203"
       gradientTransform="matrix(0.9983,-0.05841583,0.05841583,0.9983,-6.1355,5.3535)"
       gradientUnits="userSpaceOnUse"
       id="linearGradient16076-14"
       xlink:href="#aigrd43-7"
       inkscape:collect="always" />
    <linearGradient
       inkscape:collect="always"
       xlink:href="#aigrd43-7"
       id="linearGradient16076-1-5"
       gradientUnits="userSpaceOnUse"
       gradientTransform="matrix(0.9983,-0.05841583,0.05841583,0.9983,-6.1355,5.3535)"
       x1="87.867203"
       y1="99.068398"
       x2="87.920502"
       y2="107.0603" />
    <linearGradient
       gradientUnits="userSpaceOnUse"
       y2="557.52893"
       x2="1257.9845"
       y1="292.80933"
       x1="1258.1261"
       id="linearGradient7462"
       xlink:href="#linearGradient4657"
       inkscape:collect="always" />
    <linearGradient
       y2="107.0603"
       x2="87.920502"
       y1="99.068398"
       x1="87.867203"
       gradientTransform="matrix(0.9983,-0.05841583,0.05841583,0.9983,-6.1355,5.3535)"
       gradientUnits="userSpaceOnUse"
       id="linearGradient16076-144"
       xlink:href="#aigrd43-7"
       inkscape:collect="always" />
    <linearGradient
       inkscape:collect="always"
       xlink:href="#aigrd43-7"
       id="linearGradient16076-1-8"
       gradientUnits="userSpaceOnUse"
       gradientTransform="matrix(0.9983,-0.05841583,0.05841583,0.9983,-6.1355,5.3535)"
       x1="87.867203"
       y1="99.068398"
       x2="87.920502"
       y2="107.0603" />
    <marker
       inkscape:isstock="true"
       style="overflow:visible"
       id="marker8139-7"
       refX="0"
       refY="0"
       orient="auto"
       inkscape:stockid="Arrow1Mend">
      <path
         inkscape:connector-curvature="0"
         transform="matrix(-0.4,0,0,-0.4,-4,0)"
         style="fill:#ef2929;fill-opacity:1;fill-rule:evenodd;stroke:#ef2929;stroke-width:1.00000003pt;stroke-opacity:1"
         d="M 0,0 5,-5 -12.5,0 5,5 Z"
         id="path8137-5" />
    </marker>
    <marker
       inkscape:isstock="true"
       style="overflow:visible"
       id="marker8135-3"
       refX="0"
       refY="0"
       orient="auto"
       inkscape:stockid="Arrow1Mend">
      <path
         inkscape:connector-curvature="0"
         transform="matrix(-0.4,0,0,-0.4,-4,0)"
         style="fill:#ef2929;fill-opacity:1;fill-rule:evenodd;stroke:#ef2929;stroke-width:1.00000003pt;stroke-opacity:1"
         d="M 0,0 5,-5 -12.5,0 5,5 Z"
         id="path8133-5" />
    </marker>
    <marker
       inkscape:isstock="true"
       style="overflow:visible"
       id="marker8131-6"
       refX="0"
       refY="0"
       orient="auto"
       inkscape:stockid="Arrow1Mend">
      <path
         inkscape:connector-curvature="0"
         transform="matrix(-0.4,0,0,-0.4,-4,0)"
         style="fill:#ef2929;fill-opacity:1;fill-rule:evenodd;stroke:#ef2929;stroke-width:1.00000003pt;stroke-opacity:1"
         d="M 0,0 5,-5 -12.5,0 5,5 Z"
         id="path8129-2" />
    </marker>
    <marker
       inkscape:isstock="true"
       style="overflow:visible"
       id="Arrow2Lend-9"
       refX="0"
       refY="0"
       orient="auto"
       inkscape:stockid="Arrow2Lend">
      <path
         inkscape:connector-curvature="0"
         transform="matrix(-1.1,0,0,-1.1,-1.1,0)"
         d="M 8.7185878,4.0337352 -2.2072895,0.01601326 8.7185884,-4.0017078 c -1.7454984,2.3720609 -1.7354408,5.6174519 -6e-7,8.035443 z"
         style="fill:#ef2929;fill-opacity:1;fill-rule:evenodd;stroke:#ef2929;stroke-width:0.625;stroke-linejoin:round;stroke-opacity:1"
         id="path7878-1" />
    </marker>
    <marker
       inkscape:isstock="true"
       style="overflow:visible"
       id="Arrow2Lstart-2"
       refX="0"
       refY="0"
       orient="auto"
       inkscape:stockid="Arrow2Lstart">
      <path
         inkscape:connector-curvature="0"
         transform="matrix(1.1,0,0,1.1,1.1,0)"
         d="M 8.7185878,4.0337352 -2.2072895,0.01601326 8.7185884,-4.0017078 c -1.7454984,2.3720609 -1.7354408,5.6174519 -6e-7,8.035443 z"
         style="fill:#ef2929;fill-opacity:1;fill-rule:evenodd;stroke:#ef2929;stroke-width:0.625;stroke-linejoin:round;stroke-opacity:1"
         id="path7875-7" />
    </marker>
    <marker
       inkscape:isstock="true"
       style="overflow:visible"
       id="Arrow1Lstart-0"
       refX="0"
       refY="0"
       orient="auto"
       inkscape:stockid="Arrow1Lstart">
      <path
         inkscape:connector-curvature="0"
         transform="matrix(0.8,0,0,0.8,10,0)"
         style="fill:#ef2929;fill-opacity:1;fill-rule:evenodd;stroke:#ef2929;stroke-width:1.00000003pt;stroke-opacity:1"
         d="M 0,0 5,-5 -12.5,0 5,5 Z"
         id="path7857-9" />
    </marker>
    <marker
       inkscape:isstock="true"
       style="overflow:visible"
       id="Arrow1Mend-3"
       refX="0"
       refY="0"
       orient="auto"
       inkscape:stockid="Arrow1Mend">
      <path
         inkscape:connector-curvature="0"
         transform="matrix(-0.4,0,0,-0.4,-4,0)"
         style="fill:#ef2929;fill-opacity:1;fill-rule:evenodd;stroke:#ef2929;stroke-width:1.00000003pt;stroke-opacity:1"
         d="M 0,0 5,-5 -12.5,0 5,5 Z"
         id="path7866-6" />
    </marker>
    <marker
       inkscape:isstock="true"
       style="overflow:visible"
       id="Arrow1Lend-0"
       refX="0"
       refY="0"
       orient="auto"
       inkscape:stockid="Arrow1Lend">
      <path
         inkscape:connector-curvature="0"
         transform="matrix(-0.8,0,0,-0.8,-10,0)"
         style="fill:#ef2929;fill-opacity:1;fill-rule:evenodd;stroke:#ef2929;stroke-width:1.00000003pt;stroke-opacity:1"
         d="M 0,0 5,-5 -12.5,0 5,5 Z"
         id="path7860-6" />
    </marker>
  </defs>
  <sodipodi:namedview
     id="base"
     pagecolor="#ffffff"
     bordercolor="#666666"
     borderopacity="1.0"
     inkscape:pageopacity="0"
     inkscape:pageshadow="2"
     inkscape:zoom="1.0000001"
     inkscape:cx="321.25358"
     inkscape:cy="210.40129"
     inkscape:document-units="px"
     inkscape:current-layer="layer3"
     showgrid="false"
     width="1200px"
     inkscape:window-width="1920"
     inkscape:window-height="1054"
     inkscape:window-x="1920"
     inkscape:window-y="458"
     inkscape:window-maximized="0"
     fit-margin-top="0"
     fit-margin-left="0"
     fit-margin-right="0"
     fit-margin-bottom="0"
     showguides="true"
     inkscape:guide-bbox="true"
     inkscape:snap-global="false" />
  <metadata
     id="metadata7">
    <rdf:RDF>
      <cc:Work
         rdf:about="">
        <dc:format>image/svg+xml</dc:format>
        <dc:type
           rdf:resource="http://purl.org/dc/dcmitype/StillImage" />
        <dc:title></dc:title>
      </cc:Work>
    </rdf:RDF>
  </metadata>
  <g
     inkscape:label="base"
     inkscape:groupmode="layer"
     id="layer1"
     transform="translate(-1255.7366,647.85769)"
     style="display:inline">
    <g
       style="display:none"
       id="Hilfslinien_anzeigen"
       transform="translate(1356.3684,-527.09075)" />
    <text
       id="text3894-1"
       y="-590.53345"
       x="1815.9657"
       style="font-style:normal;font-weight:normal;font-size:12.80000019px;line-height:0%;font-family:'Bitstream Vera Sans';fill:#000000;fill-opacity:1;stroke:none;stroke-width:1.06666672"
       xml:space="preserve"><tspan
         id="tspan3991-8"
         y="-590.53345"
         x="1815.9657"
         sodipodi:role="line"
         style="font-size:40.4179306px;line-height:1.25;stroke-width:1.06666672"> </tspan></text>
    <g
       style="fill:#d3d7cf;fill-opacity:1;stroke:none;stroke-width:1.2036351"
       id="g22145"
       transform="matrix(0.56937487,0,0,0.51008359,1215.9114,-695.30573)"
       inkscape:export-filename="/home/sylence/projects/Diplomarbeit/Paper/Bilder/topologie.png"
       inkscape:export-xdpi="160"
       inkscape:export-ydpi="160">
      <g
         style="fill:#d3d7cf;fill-opacity:1;stroke:none;stroke-width:1.2036351"
         id="g22147">
        <path
           style="fill:#d3d7cf;fill-opacity:1;stroke:none;stroke-width:1.28387749"
           d="m 1345.759,182.84119 c -53.9414,0.99641 -106.2647,34.54825 -142.0231,86.63493 -102.5416,8.70597 -181.8693,67.00512 -181.8693,137.52048 0,66.35367 70.2816,121.85417 164.0104,135.4293 1.7676,1.43744 3.5987,2.82781 5.5219,4.18236 4.5744,3.22188 9.4698,6.12129 14.675,8.7133 21.5851,23.05412 49.4164,38.10073 81.5326,41.62457 46.1941,5.06853 92.3328,-14.65201 129.1391,-50.43745 7.6454,-2.85283 15.2747,-5.95003 22.8829,-9.26097 27.5266,11.41618 59.3436,17.92447 93.2229,17.92447 104.5656,0 189.4305,-62.09989 189.4305,-138.61588 0,-47.91634 -33.2629,-90.16579 -83.8211,-115.0651 -4.1314,-20.34149 -15.5429,-38.08866 -34.7721,-51.63242 -36.1329,-25.44964 -92.9287,-31.0832 -155.0067,-19.56754 -22.1599,-25.90662 -51.6514,-42.92788 -86.0593,-46.70319 -5.6352,-0.61831 -11.2468,-0.85062 -16.8637,-0.74686 z"
           id="path22149"
           inkscape:connector-curvature="0" />
      </g>
      <path
         id="path22151"
         d="m 1345.7666,182.83333 c -53.9413,0.99641 -106.2749,34.54666 -142.0333,86.63334 -102.5415,8.70596 -181.8666,67.01797 -181.8666,137.53333 0,7.35069 0.8719,14.55794 2.5333,21.6 79.8026,-40.50654 209.9825,-66.9 356.9333,-66.9 137.4799,0 260.263,23.08734 340.8667,59.23333 0.062,-1.45263 0.066,-2.90315 0.066,-4.36666 0,-47.91632 -33.2418,-90.16736 -83.8,-115.06667 -4.1314,-20.3415 -15.5376,-38.08958 -34.7666,-51.63333 -36.133,-25.44965 -92.9554,-31.08233 -155.0334,-19.56667 -22.1599,-25.90662 -51.6255,-42.92469 -86.0332,-46.7 -5.6352,-0.61831 -11.25,-0.87043 -16.8668,-0.76667 z"
         style="fill:#d3d7cf;fill-opacity:1;stroke:none;stroke-width:1.28387749"
         inkscape:connector-curvature="0" />
    </g>
    <path
       style="fill:#2e3436;stroke-width:1.06666672"
       inkscape:connector-curvature="0"
       d="m 1727.2371,-483.62066 h 22.3905 c 7.0153,0 7.4636,1.96594 7.4636,5.05059 0,3.07581 -0.4483,5.05059 -7.4636,5.05059 h -22.3905 c -7.1288,0 -7.4634,-1.96596 -7.4634,-5.05059 0,-3.08465 0.6098,-5.05059 7.4634,-5.05059 z m 26.1217,12.62648 h -11.1959 c -3.4268,0 -3.7298,2.59724 -3.7298,5.68189 0,3.08464 0.1654,5.68192 3.7298,5.68192 h 11.1959 c 3.5077,0 3.7324,-2.60611 3.7324,-5.68192 0,-3.08465 -0.2247,-5.68189 -3.7324,-5.68189 z m -49.8808,-2.5253 h 11.1958 c 3.5064,0 3.7324,-1.97478 3.7324,-5.05059 0,-3.08465 -0.226,-5.05059 -3.7324,-5.05059 h -11.1958 c -3.4269,0 -3.7324,1.96594 -3.7324,5.05059 0,3.08463 0.1679,5.05059 3.7324,5.05059 z m 26.2213,2.5253 h -22.3918 c -6.8536,0 -7.4634,2.59724 -7.4634,5.68189 0,3.08464 0.3346,5.68192 7.4634,5.68192 h 22.3905 c 7.0128,0 7.4636,-2.60611 7.4636,-5.68192 0,-3.08465 -0.4508,-5.68189 -7.4623,-5.68189 z m -5.2791,-14.38028 c 0.069,0.024 0.1439,0.0303 0.2108,0.0316 0.3422,0.0227 0.644,-0.27905 0.644,-0.63132 0,-0.0784 -0.015,-0.15532 -0.042,-0.22475 -0.1024,-1.3725 -0.6744,-10.76913 2.3913,-15.55834 0.1516,1.9912 1.1566,3.04804 2.0796,3.60359 0.041,0.0254 0.084,0.0442 0.13,0.0593 0.024,0.007 2.4003,0.8043 3.2084,3.19322 0.7702,2.28919 -0.1035,5.27282 -2.6011,8.86631 -0.1325,0.19194 -0.1653,0.49494 -0.057,0.70203 0.1087,0.20708 0.3484,0.34722 0.5846,0.34722 0.7525,0 5.6579,-3.22732 8.6705,-8.33219 3.1049,-5.26525 3.1769,-10.88905 0.202,-16.26541 -0.1123,-0.20329 -0.2979,-0.32072 -0.5618,-0.32576 -0.2336,0.002 -0.4457,0.1364 -0.553,0.34344 -0.2841,0.5543 -1.2008,1.95079 -2.1895,2.16166 -0.054,-0.35862 -0.015,-1.13386 0.018,-1.77656 0.1527,-3.08084 0.409,-8.23749 -4.1453,-11.432 -0.069,-0.0327 -1.7097,-0.82703 -3.1163,-0.82703 -0.6136,0 -1.1174,0.14775 -1.5,0.44193 -0.1831,0.14146 -0.274,0.37121 -0.2374,0.59976 0.035,0.2298 0.1945,0.4192 0.4116,0.49748 0.026,0.01 2.5468,0.92047 3.0342,2.82706 0.2992,1.16669 -0.2323,2.52276 -1.5114,3.96849 -0.2487,0.2096 -1.1061,0.81064 -1.7538,0.81064 -0.1704,0.006 -0.5758,0 -0.8131,-0.8687 -0.075,-0.27526 -0.3246,-0.46593 -0.6087,-0.46593 -0.7373,0 -4.293,4.58215 -4.3283,4.62886 -1.7185,2.32454 -2.394,3.97354 -2.067,5.04427 1.5152,4.94579 1.6163,7.68574 1.1832,8.00013 -1.8397,-0.86618 -4.2261,-2.53919 -3.9256,-3.43061 0.1024,-0.3043 -0.039,-0.63637 -0.3296,-0.77275 -0.2891,-0.13762 -0.6363,-0.0339 -0.8055,0.2374 -0.089,0.14268 -2.1592,3.55056 -0.7715,7.37384 1.1364,3.12884 4.2147,5.54048 9.1491,7.1731 z"
       id="path9733" />
    <text
       xml:space="preserve"
       style="font-style:normal;font-weight:normal;font-size:12.80000019px;line-height:0%;font-family:'Bitstream Vera Sans';fill:#000000;fill-opacity:1;stroke:none;stroke-width:1.06666672"
       x="-1636.3063"
       y="-590.53345"
       id="text6232"
       transform="scale(-1,1)"><tspan
         style="font-size:40.4179306px;line-height:1.25;stroke-width:1.06666672"
         sodipodi:role="line"
         x="-1636.3063"
         y="-590.53345"
         id="tspan6230"> </tspan></text>
    <g
       inkscape:export-ydpi="160"
       inkscape:export-xdpi="160"
       inkscape:export-filename="/home/sylence/projects/Diplomarbeit/Paper/Bilder/topologie.png"
       transform="matrix(0.56937487,0,0,0.51008359,673.9114,-695.30573)"
       id="g6240"
       style="fill:#d3d7cf;fill-opacity:1;stroke:none;stroke-width:1.2036351">
      <g
         id="g6236"
         style="fill:#d3d7cf;fill-opacity:1;stroke:none;stroke-width:1.2036351">
        <path
           inkscape:connector-curvature="0"
           id="path6234"
           d="m 1345.759,182.84119 c -53.9414,0.99641 -106.2647,34.54825 -142.0231,86.63493 -102.5416,8.70597 -181.8693,67.00512 -181.8693,137.52048 0,66.35367 70.2816,121.85417 164.0104,135.4293 1.7676,1.43744 3.5987,2.82781 5.5219,4.18236 4.5744,3.22188 9.4698,6.12129 14.675,8.7133 21.5851,23.05412 49.4164,38.10073 81.5326,41.62457 46.1941,5.06853 92.3328,-14.65201 129.1391,-50.43745 7.6454,-2.85283 15.2747,-5.95003 22.8829,-9.26097 27.5266,11.41618 59.3436,17.92447 93.2229,17.92447 104.5656,0 189.4305,-62.09989 189.4305,-138.61588 0,-47.91634 -33.2629,-90.16579 -83.8211,-115.0651 -4.1314,-20.34149 -15.5429,-38.08866 -34.7721,-51.63242 -36.1329,-25.44964 -92.9287,-31.0832 -155.0067,-19.56754 -22.1599,-25.90662 -51.6514,-42.92788 -86.0593,-46.70319 -5.6352,-0.61831 -11.2468,-0.85062 -16.8637,-0.74686 z"
           style="fill:#d3d7cf;fill-opacity:1;stroke:none;stroke-width:1.28387749" />
      </g>
      <path
         inkscape:connector-curvature="0"
         style="fill:#d3d7cf;fill-opacity:1;stroke:none;stroke-width:1.28387749"
         d="m 1345.7666,182.83333 c -53.9413,0.99641 -106.2749,34.54666 -142.0333,86.63334 -102.5415,8.70596 -181.8666,67.01797 -181.8666,137.53333 0,7.35069 0.8719,14.55794 2.5333,21.6 79.8026,-40.50654 209.9825,-66.9 356.9333,-66.9 137.4799,0 260.263,23.08734 340.8667,59.23333 0.062,-1.45263 0.066,-2.90315 0.066,-4.36666 0,-47.91632 -33.2418,-90.16736 -83.8,-115.06667 -4.1314,-20.3415 -15.5376,-38.08958 -34.7666,-51.63333 -36.133,-25.44965 -92.9554,-31.08233 -155.0334,-19.56667 -22.1599,-25.90662 -51.6255,-42.92469 -86.0332,-46.7 -5.6352,-0.61831 -11.25,-0.87043 -16.8668,-0.76667 z"
         id="path6238" />
    </g>
  </g>
  <g
     inkscape:groupmode="layer"
     id="layer3"
     inkscape:label="honeysens"
     style="display:inline"
     transform="translate(-25.08173,2.5262527)">
    <rect
       y="-2.5262527"
       x="324.11743"
       height="53.695747"
       width="367.32587"
       id="rect16973"
       style="fill:#ef2929;fill-opacity:1;stroke:none;stroke-width:1.06666672"
       inkscape:export-filename="/home/sylence/projects/Diplomarbeit/Paper/Bilder/topologie.png"
       inkscape:export-xdpi="160"
       inkscape:export-ydpi="160" />
    <text
       id="text7002"
       y="32.471161"
       x="341.62476"
       style="font-style:normal;font-weight:normal;font-size:23.02415848px;line-height:1.25;font-family:sans-serif;letter-spacing:0px;word-spacing:0px;fill:#ffffff;fill-opacity:1;stroke:none;stroke-width:1"
       xml:space="preserve"><tspan
         style="fill:#ffffff;stroke-width:1"
         y="32.471161"
         x="341.62476"
         id="tspan7000"
         sodipodi:role="line">HoneySens Server</tspan></text>
    <text
       xml:space="preserve"
       style="font-style:normal;font-weight:normal;font-size:12.64040756px;line-height:1.25;font-family:sans-serif;letter-spacing:0px;word-spacing:0px;fill:#000000;fill-opacity:1;stroke:none;stroke-width:0.54900628"
       x="763.98352"
       y="166.16042"
       id="text7849"><tspan
         sodipodi:role="line"
         id="tspan7847"
         x="763.98352"
         y="166.16042"
         style="fill:#000000;stroke-width:0.54900628">192.168.0.0/24</tspan></text>
    <text
       id="text8166"
       y="28.426071"
       x="607.25928"
       style="font-style:normal;font-weight:normal;font-size:12.64040756px;line-height:1.25;font-family:sans-serif;letter-spacing:0px;word-spacing:0px;fill:#ffffff;fill-opacity:1;stroke:none;stroke-width:0.54900628"
       xml:space="preserve"><tspan
         style="fill:#ffffff;stroke-width:0.54900628"
         y="28.426071"
         x="607.25928"
         id="tspan8164"
         sodipodi:role="line">10.1.1.3/24</tspan></text>
    <g
       transform="translate(211.3399,-479.96369)"
       id="Hilfslinien_anzeigen-5"
       style="display:none" />
    <g
       id="g5965"
       transform="matrix(1.0079519,0,0,1.0079519,703.66752,72.320254)"
       style="fill:#2e3436;stroke-width:1.73356915">
      <path
         id="path5959"
         d="M 19.2,25.6 H 10.666667 C 10.078933,25.6 9.6,26.065067 9.6,26.666667 c 0,0.445866 0,1.066666 0,1.066666 H 20.266667 V 26.666667 C 20.266667,26.078933 19.787733,25.6 19.2,25.6 Z"
         inkscape:connector-curvature="0"
         style="fill:#2e3436;stroke-width:1.84914052" />
      <path
         id="path5961"
         d="M 6.4,2.1333333 H 1.0666667 C 0.47786667,2.1333333 0,2.6112 0,3.2 v 23.466667 c 0,0.589866 0.47786667,1.066666 1.0666667,1.066666 H 6.4 c 0.5888,0 1.0666667,-0.4768 1.0666667,-1.066666 V 3.2 C 7.4666667,2.6112 6.9888,2.1333333 6.4,2.1333333 Z M 3.7333333,23.633067 c -0.976,0 -1.7664,-0.7904 -1.7664,-1.7664 0,-0.976 0.7904,-1.7664 1.7664,-1.7664 0.9749334,0 1.7664,0.7904 1.7664,1.7664 0,0.976 -0.7914666,1.7664 -1.7664,1.7664 z"
         inkscape:connector-curvature="0"
         style="fill:#2e3436;stroke-width:1.84914052" />
      <path
         id="path5963"
         d="M 24.533333,2.1333333 H 9.6 V 4.2666667 H 24.533333 C 25.121067,4.2666667 25.6,4.7456 25.6,5.3333333 V 17.066667 c 0,0.587733 -0.478933,1.066666 -1.066667,1.066666 H 9.6 V 22.4 h 2.133333 v 1.066667 c 0,0.587733 0.478934,1.066666 1.066667,1.066666 h 4.266667 c 0.587733,0 1.066666,-0.4672 1.066666,-1.066666 0,-0.168534 0,-0.587734 0,-1.066667 h 6.4 c 1.7664,0 3.2,-1.4336 3.2,-3.2 V 5.3333333 c 0,-1.7664 -1.4336,-3.2 -3.2,-3.2 z"
         inkscape:connector-curvature="0"
         style="fill:#2e3436;stroke-width:1.84914052" />
    </g>
    <g
       style="fill:#2e3436;stroke-width:1.73356915"
       transform="matrix(1.0079519,0,0,1.0079519,767.27768,96.528405)"
       id="g5973">
      <path
         style="fill:#2e3436;stroke-width:1.84914052"
         inkscape:connector-curvature="0"
         d="M 19.2,25.6 H 10.666667 C 10.078933,25.6 9.6,26.065067 9.6,26.666667 c 0,0.445866 0,1.066666 0,1.066666 H 20.266667 V 26.666667 C 20.266667,26.078933 19.787733,25.6 19.2,25.6 Z"
         id="path5967" />
      <path
         style="fill:#2e3436;stroke-width:1.84914052"
         inkscape:connector-curvature="0"
         d="M 6.4,2.1333333 H 1.0666667 C 0.47786667,2.1333333 0,2.6112 0,3.2 v 23.466667 c 0,0.589866 0.47786667,1.066666 1.0666667,1.066666 H 6.4 c 0.5888,0 1.0666667,-0.4768 1.0666667,-1.066666 V 3.2 C 7.4666667,2.6112 6.9888,2.1333333 6.4,2.1333333 Z M 3.7333333,23.633067 c -0.976,0 -1.7664,-0.7904 -1.7664,-1.7664 0,-0.976 0.7904,-1.7664 1.7664,-1.7664 0.9749334,0 1.7664,0.7904 1.7664,1.7664 0,0.976 -0.7914666,1.7664 -1.7664,1.7664 z"
         id="path5969" />
      <path
         style="fill:#2e3436;stroke-width:1.84914052"
         inkscape:connector-curvature="0"
         d="M 24.533333,2.1333333 H 9.6 V 4.2666667 H 24.533333 C 25.121067,4.2666667 25.6,4.7456 25.6,5.3333333 V 17.066667 c 0,0.587733 -0.478933,1.066666 -1.066667,1.066666 H 9.6 V 22.4 h 2.133333 v 1.066667 c 0,0.587733 0.478934,1.066666 1.066667,1.066666 h 4.266667 c 0.587733,0 1.066666,-0.4672 1.066666,-1.066666 0,-0.168534 0,-0.587734 0,-1.066667 h 6.4 c 1.7664,0 3.2,-1.4336 3.2,-3.2 V 5.3333333 c 0,-1.7664 -1.4336,-3.2 -3.2,-3.2 z"
         id="path5971" />
    </g>
    <g
       id="g5981"
       transform="matrix(1.0079519,0,0,1.0079519,831.57056,77.880175)"
       style="fill:#2e3436;stroke-width:1.73356915">
      <path
         id="path5975"
         d="M 19.2,25.6 H 10.666667 C 10.078933,25.6 9.6,26.065067 9.6,26.666667 c 0,0.445866 0,1.066666 0,1.066666 H 20.266667 V 26.666667 C 20.266667,26.078933 19.787733,25.6 19.2,25.6 Z"
         inkscape:connector-curvature="0"
         style="fill:#2e3436;stroke-width:1.84914052" />
      <path
         id="path5977"
         d="M 6.4,2.1333333 H 1.0666667 C 0.47786667,2.1333333 0,2.6112 0,3.2 v 23.466667 c 0,0.589866 0.47786667,1.066666 1.0666667,1.066666 H 6.4 c 0.5888,0 1.0666667,-0.4768 1.0666667,-1.066666 V 3.2 C 7.4666667,2.6112 6.9888,2.1333333 6.4,2.1333333 Z M 3.7333333,23.633067 c -0.976,0 -1.7664,-0.7904 -1.7664,-1.7664 0,-0.976 0.7904,-1.7664 1.7664,-1.7664 0.9749334,0 1.7664,0.7904 1.7664,1.7664 0,0.976 -0.7914666,1.7664 -1.7664,1.7664 z"
         inkscape:connector-curvature="0"
         style="fill:#2e3436;stroke-width:1.84914052" />
      <path
         id="path5979"
         d="M 24.533333,2.1333333 H 9.6 V 4.2666667 H 24.533333 C 25.121067,4.2666667 25.6,4.7456 25.6,5.3333333 V 17.066667 c 0,0.587733 -0.478933,1.066666 -1.066667,1.066666 H 9.6 V 22.4 h 2.133333 v 1.066667 c 0,0.587733 0.478934,1.066666 1.066667,1.066666 h 4.266667 c 0.587733,0 1.066666,-0.4672 1.066666,-1.066666 0,-0.168534 0,-0.587734 0,-1.066667 h 6.4 c 1.7664,0 3.2,-1.4336 3.2,-3.2 V 5.3333333 c 0,-1.7664 -1.4336,-3.2 -3.2,-3.2 z"
         inkscape:connector-curvature="0"
         style="fill:#2e3436;stroke-width:1.84914052" />
    </g>
    <text
       id="text6098"
       y="166.03909"
       x="636.52844"
       style="font-style:normal;font-weight:normal;font-size:12.64040756px;line-height:1.25;font-family:sans-serif;letter-spacing:0px;word-spacing:0px;fill:#000000;fill-opacity:1;stroke:none;stroke-width:0.54900628"
       xml:space="preserve"><tspan
         style="fill:#000000;stroke-width:0.54900628"
         y="166.03909"
         x="636.52844"
         id="tspan6096"
         sodipodi:role="line">10.1.3.1</tspan></text>
    <text
       id="text6094"
       y="215.65788"
       x="412.25259"
       style="font-style:normal;font-weight:normal;font-size:12.64040756px;line-height:1.25;font-family:sans-serif;letter-spacing:0px;word-spacing:0px;fill:#000000;fill-opacity:1;stroke:none;stroke-width:0.54900628"
       xml:space="preserve"><tspan
         style="fill:#000000;stroke-width:0.54900628"
         y="215.65788"
         x="412.25259"
         id="tspan6092"
         sodipodi:role="line">TCP/5001 -&gt; 10.1.2.1:5000</tspan></text>
    <text
       xml:space="preserve"
       style="font-style:normal;font-weight:normal;font-size:12.64040756px;line-height:1.25;font-family:sans-serif;letter-spacing:0px;word-spacing:0px;fill:#ef2929;fill-opacity:1;stroke:none;stroke-width:0.54900628;"
       x="412.25259"
       y="235.65788"
       id="text6106"><tspan
         sodipodi:role="line"
         id="tspan6104"
         x="412.25259"
         y="235.65788"
         style="fill:#ef2929;stroke-width:0.54900628;">TCP/5002 -&gt; 10.1.3.1:5000</tspan></text>
    <text
       id="text6110"
       y="202.80864"
       x="853.95496"
       style="font-style:normal;font-weight:normal;font-size:12.64040756px;line-height:1.25;font-family:sans-serif;letter-spacing:0px;word-spacing:0px;fill:#ef2929;fill-opacity:1;stroke:none;stroke-width:0.54900628"
       xml:space="preserve"><tspan
         style="fill:#ef2929;stroke-width:0.54900628"
         y="202.80864"
         x="853.95496"
         id="tspan6108"
         sodipodi:role="line">192.168.0.10</tspan></text>
    <g
       style="fill:#2e3436;stroke-width:1.73356915"
       transform="matrix(1.0079519,0,0,1.0079519,639.32081,105.55427)"
       id="g6126">
      <path
         style="fill:#2e3436;stroke-width:1.84914052"
         inkscape:connector-curvature="0"
         d="M 19.2,25.6 H 10.666667 C 10.078933,25.6 9.6,26.065067 9.6,26.666667 c 0,0.445866 0,1.066666 0,1.066666 H 20.266667 V 26.666667 C 20.266667,26.078933 19.787733,25.6 19.2,25.6 Z"
         id="path6120" />
      <path
         style="fill:#2e3436;stroke-width:1.84914052"
         inkscape:connector-curvature="0"
         d="M 6.4,2.1333333 H 1.0666667 C 0.47786667,2.1333333 0,2.6112 0,3.2 v 23.466667 c 0,0.589866 0.47786667,1.066666 1.0666667,1.066666 H 6.4 c 0.5888,0 1.0666667,-0.4768 1.0666667,-1.066666 V 3.2 C 7.4666667,2.6112 6.9888,2.1333333 6.4,2.1333333 Z M 3.7333333,23.633067 c -0.976,0 -1.7664,-0.7904 -1.7664,-1.7664 0,-0.976 0.7904,-1.7664 1.7664,-1.7664 0.9749334,0 1.7664,0.7904 1.7664,1.7664 0,0.976 -0.7914666,1.7664 -1.7664,1.7664 z"
         id="path6122" />
      <path
         style="fill:#2e3436;stroke-width:1.84914052"
         inkscape:connector-curvature="0"
         d="M 24.533333,2.1333333 H 9.6 V 4.2666667 H 24.533333 C 25.121067,4.2666667 25.6,4.7456 25.6,5.3333333 V 17.066667 c 0,0.587733 -0.478933,1.066666 -1.066667,1.066666 H 9.6 V 22.4 h 2.133333 v 1.066667 c 0,0.587733 0.478934,1.066666 1.066667,1.066666 h 4.266667 c 0.587733,0 1.066666,-0.4672 1.066666,-1.066666 0,-0.168534 0,-0.587734 0,-1.066667 h 6.4 c 1.7664,0 3.2,-1.4336 3.2,-3.2 V 5.3333333 c 0,-1.7664 -1.4336,-3.2 -3.2,-3.2 z"
         id="path6124" />
    </g>
    <text
       xml:space="preserve"
       style="font-style:normal;font-weight:normal;font-size:12.64040756px;line-height:1.25;font-family:sans-serif;letter-spacing:0px;word-spacing:0px;fill:#ef2929;fill-opacity:1;stroke:none;stroke-width:0.54900628"
       x="641.52063"
       y="215.65788"
       id="text6214"><tspan
         sodipodi:role="line"
         id="tspan6212"
         x="641.52063"
         y="215.65788"
         style="fill:#ef2929;stroke-width:0.54900628">TCP/5000 -&gt; 192.168.0.10</tspan></text>
    <rect
       style="fill:none;stroke:#2e3436;stroke-width:2.67968512;stroke-miterlimit:4;stroke-dasharray:none;stroke-opacity:1"
       id="rect6216"
       width="193.04013"
       height="47.411674"
       x="401.24353"
       y="197.69049" />
    <text
       id="text6244"
       y="166.16042"
       x="129.47862"
       style="font-style:normal;font-weight:normal;font-size:12.64040756px;line-height:1.25;font-family:sans-serif;letter-spacing:0px;word-spacing:0px;fill:#000000;fill-opacity:1;stroke:none;stroke-width:0.54900628"
       xml:space="preserve"><tspan
         style="fill:#000000;stroke-width:0.54900628"
         y="166.16042"
         x="129.47862"
         id="tspan6242"
         sodipodi:role="line">192.168.0.0/24</tspan></text>
    <g
       style="fill:#2e3436;stroke-width:1.73356915"
       transform="matrix(1.0079519,0,0,1.0079519,191.54204,62.42076)"
       id="g6252">
      <path
         style="fill:#2e3436;stroke-width:1.84914052"
         inkscape:connector-curvature="0"
         d="M 19.2,25.6 H 10.666667 C 10.078933,25.6 9.6,26.065067 9.6,26.666667 c 0,0.445866 0,1.066666 0,1.066666 H 20.266667 V 26.666667 C 20.266667,26.078933 19.787733,25.6 19.2,25.6 Z"
         id="path6246" />
      <path
         style="fill:#2e3436;stroke-width:1.84914052"
         inkscape:connector-curvature="0"
         d="M 6.4,2.1333333 H 1.0666667 C 0.47786667,2.1333333 0,2.6112 0,3.2 v 23.466667 c 0,0.589866 0.47786667,1.066666 1.0666667,1.066666 H 6.4 c 0.5888,0 1.0666667,-0.4768 1.0666667,-1.066666 V 3.2 C 7.4666667,2.6112 6.9888,2.1333333 6.4,2.1333333 Z M 3.7333333,23.633067 c -0.976,0 -1.7664,-0.7904 -1.7664,-1.7664 0,-0.976 0.7904,-1.7664 1.7664,-1.7664 0.9749334,0 1.7664,0.7904 1.7664,1.7664 0,0.976 -0.7914666,1.7664 -1.7664,1.7664 z"
         id="path6248" />
      <path
         style="fill:#2e3436;stroke-width:1.84914052"
         inkscape:connector-curvature="0"
         d="M 24.533333,2.1333333 H 9.6 V 4.2666667 H 24.533333 C 25.121067,4.2666667 25.6,4.7456 25.6,5.3333333 V 17.066667 c 0,0.587733 -0.478933,1.066666 -1.066667,1.066666 H 9.6 V 22.4 h 2.133333 v 1.066667 c 0,0.587733 0.478934,1.066666 1.066667,1.066666 h 4.266667 c 0.587733,0 1.066666,-0.4672 1.066666,-1.066666 0,-0.168534 0,-0.587734 0,-1.066667 h 6.4 c 1.7664,0 3.2,-1.4336 3.2,-3.2 V 5.3333333 c 0,-1.7664 -1.4336,-3.2 -3.2,-3.2 z"
         id="path6250" />
    </g>
    <g
       id="g6260"
       transform="matrix(1.0079519,0,0,1.0079519,243.83849,83.800484)"
       style="fill:#2e3436;stroke-width:1.73356915">
      <path
         id="path6254"
         d="M 19.2,25.6 H 10.666667 C 10.078933,25.6 9.6,26.065067 9.6,26.666667 c 0,0.445866 0,1.066666 0,1.066666 H 20.266667 V 26.666667 C 20.266667,26.078933 19.787733,25.6 19.2,25.6 Z"
         inkscape:connector-curvature="0"
         style="fill:#2e3436;stroke-width:1.84914052" />
      <path
         id="path6256"
         d="M 6.4,2.1333333 H 1.0666667 C 0.47786667,2.1333333 0,2.6112 0,3.2 v 23.466667 c 0,0.589866 0.47786667,1.066666 1.0666667,1.066666 H 6.4 c 0.5888,0 1.0666667,-0.4768 1.0666667,-1.066666 V 3.2 C 7.4666667,2.6112 6.9888,2.1333333 6.4,2.1333333 Z M 3.7333333,23.633067 c -0.976,0 -1.7664,-0.7904 -1.7664,-1.7664 0,-0.976 0.7904,-1.7664 1.7664,-1.7664 0.9749334,0 1.7664,0.7904 1.7664,1.7664 0,0.976 -0.7914666,1.7664 -1.7664,1.7664 z"
         inkscape:connector-curvature="0"
         style="fill:#2e3436;stroke-width:1.84914052" />
      <path
         id="path6258"
         d="M 24.533333,2.1333333 H 9.6 V 4.2666667 H 24.533333 C 25.121067,4.2666667 25.6,4.7456 25.6,5.3333333 V 17.066667 c 0,0.587733 -0.478933,1.066666 -1.066667,1.066666 H 9.6 V 22.4 h 2.133333 v 1.066667 c 0,0.587733 0.478934,1.066666 1.066667,1.066666 h 4.266667 c 0.587733,0 1.066666,-0.4672 1.066666,-1.066666 0,-0.168534 0,-0.587734 0,-1.066667 h 6.4 c 1.7664,0 3.2,-1.4336 3.2,-3.2 V 5.3333333 c 0,-1.7664 -1.4336,-3.2 -3.2,-3.2 z"
         inkscape:connector-curvature="0"
         style="fill:#2e3436;stroke-width:1.84914052" />
    </g>
    <g
       style="fill:#2e3436;stroke-width:1.73356915"
       transform="matrix(1.0079519,0,0,1.0079519,305.30295,77.880175)"
       id="g6268">
      <path
         style="fill:#2e3436;stroke-width:1.84914052"
         inkscape:connector-curvature="0"
         d="M 19.2,25.6 H 10.666667 C 10.078933,25.6 9.6,26.065067 9.6,26.666667 c 0,0.445866 0,1.066666 0,1.066666 H 20.266667 V 26.666667 C 20.266667,26.078933 19.787733,25.6 19.2,25.6 Z"
         id="path6262" />
      <path
         style="fill:#2e3436;stroke-width:1.84914052"
         inkscape:connector-curvature="0"
         d="M 6.4,2.1333333 H 1.0666667 C 0.47786667,2.1333333 0,2.6112 0,3.2 v 23.466667 c 0,0.589866 0.47786667,1.066666 1.0666667,1.066666 H 6.4 c 0.5888,0 1.0666667,-0.4768 1.0666667,-1.066666 V 3.2 C 7.4666667,2.6112 6.9888,2.1333333 6.4,2.1333333 Z M 3.7333333,23.633067 c -0.976,0 -1.7664,-0.7904 -1.7664,-1.7664 0,-0.976 0.7904,-1.7664 1.7664,-1.7664 0.9749334,0 1.7664,0.7904 1.7664,1.7664 0,0.976 -0.7914666,1.7664 -1.7664,1.7664 z"
         id="path6264" />
      <path
         style="fill:#2e3436;stroke-width:1.84914052"
         inkscape:connector-curvature="0"
         d="M 24.533333,2.1333333 H 9.6 V 4.2666667 H 24.533333 C 25.121067,4.2666667 25.6,4.7456 25.6,5.3333333 V 17.066667 c 0,0.587733 -0.478933,1.066666 -1.066667,1.066666 H 9.6 V 22.4 h 2.133333 v 1.066667 c 0,0.587733 0.478934,1.066666 1.066667,1.066666 h 4.266667 c 0.587733,0 1.066666,-0.4672 1.066666,-1.066666 0,-0.168534 0,-0.587734 0,-1.066667 h 6.4 c 1.7664,0 3.2,-1.4336 3.2,-3.2 V 5.3333333 c 0,-1.7664 -1.4336,-3.2 -3.2,-3.2 z"
         id="path6266" />
    </g>
    <text
       xml:space="preserve"
       style="font-style:normal;font-weight:normal;font-size:12.64040756px;line-height:1.25;font-family:sans-serif;letter-spacing:0px;word-spacing:0px;fill:#000000;fill-opacity:1;stroke:none;stroke-width:0.54900628"
       x="301.82062"
       y="166.03909"
       id="text6272"><tspan
         sodipodi:role="line"
         id="tspan6270"
         x="301.82062"
         y="166.03909"
         style="fill:#000000;stroke-width:0.54900628">10.1.2.1</tspan></text>
    <text
       xml:space="preserve"
       style="font-style:normal;font-weight:normal;font-size:12.64040756px;line-height:1.25;font-family:sans-serif;letter-spacing:0px;word-spacing:0px;fill:#ef2929;fill-opacity:1;stroke:none;stroke-width:0.54900628"
       x="51.956264"
       y="202.80864"
       id="text6276"><tspan
         sodipodi:role="line"
         id="tspan6274"
         x="51.956264"
         y="202.80864"
         style="fill:#ef2929;stroke-width:0.54900628">192.168.0.10</tspan></text>
    <g
       id="g6284"
       transform="matrix(1.0079519,0,0,1.0079519,137.80193,94.947669)"
       style="fill:#2e3436;stroke-width:1.73356915">
      <path
         id="path6278"
         d="M 19.2,25.6 H 10.666667 C 10.078933,25.6 9.6,26.065067 9.6,26.666667 c 0,0.445866 0,1.066666 0,1.066666 H 20.266667 V 26.666667 C 20.266667,26.078933 19.787733,25.6 19.2,25.6 Z"
         inkscape:connector-curvature="0"
         style="fill:#2e3436;stroke-width:1.84914052" />
      <path
         id="path6280"
         d="M 6.4,2.1333333 H 1.0666667 C 0.47786667,2.1333333 0,2.6112 0,3.2 v 23.466667 c 0,0.589866 0.47786667,1.066666 1.0666667,1.066666 H 6.4 c 0.5888,0 1.0666667,-0.4768 1.0666667,-1.066666 V 3.2 C 7.4666667,2.6112 6.9888,2.1333333 6.4,2.1333333 Z M 3.7333333,23.633067 c -0.976,0 -1.7664,-0.7904 -1.7664,-1.7664 0,-0.976 0.7904,-1.7664 1.7664,-1.7664 0.9749334,0 1.7664,0.7904 1.7664,1.7664 0,0.976 -0.7914666,1.7664 -1.7664,1.7664 z"
         inkscape:connector-curvature="0"
         style="fill:#2e3436;stroke-width:1.84914052" />
      <path
         id="path6282"
         d="M 24.533333,2.1333333 H 9.6 V 4.2666667 H 24.533333 C 25.121067,4.2666667 25.6,4.7456 25.6,5.3333333 V 17.066667 c 0,0.587733 -0.478933,1.066666 -1.066667,1.066666 H 9.6 V 22.4 h 2.133333 v 1.066667 c 0,0.587733 0.478934,1.066666 1.066667,1.066666 h 4.266667 c 0.587733,0 1.066666,-0.4672 1.066666,-1.066666 0,-0.168534 0,-0.587734 0,-1.066667 h 6.4 c 1.7664,0 3.2,-1.4336 3.2,-3.2 V 5.3333333 c 0,-1.7664 -1.4336,-3.2 -3.2,-3.2 z"
         inkscape:connector-curvature="0"
         style="fill:#2e3436;stroke-width:1.84914052" />
    </g>
    <text
       id="text6288"
       y="215.65788"
       x="182.69084"
       style="font-style:normal;font-weight:normal;font-size:12.64040756px;line-height:1.25;font-family:sans-serif;letter-spacing:0px;word-spacing:0px;fill:#000000;fill-opacity:1;stroke:none;stroke-width:0.54900628"
       xml:space="preserve"><tspan
         style="fill:#000000;stroke-width:0.54900628"
         y="215.65788"
         x="182.69084"
         id="tspan6286"
         sodipodi:role="line">TCP/5000 -&gt; 192.168.0.10</tspan></text>
    <rect
       style="fill:none;stroke:#2e3436;stroke-width:2.67968512;stroke-miterlimit:4;stroke-dasharray:none;stroke-opacity:1"
       id="rect6290"
       width="181.72643"
       height="27.411676"
       x="-356.57599"
       y="197.69049"
       transform="scale(-1,1)" />
    <text
       xml:space="preserve"
       style="font-style:normal;font-weight:normal;font-size:12.64040756px;line-height:1.25;font-family:sans-serif;letter-spacing:0px;word-spacing:0px;fill:#ef2929;fill-opacity:1;stroke:none;stroke-width:0.54900628;"
       x="343.8924"
       y="67.124886"
       id="text6338"><tspan
         sodipodi:role="line"
         id="tspan6336"
         x="343.8924"
         y="67.124886"
         style="fill:#ef2929;stroke-width:0.54900628;">to 192.168.0.10:5000</tspan></text>
    <text
       id="text6350"
       y="67.124886"
       x="513.8924"
       style="font-style:normal;font-weight:normal;font-size:12.64040756px;line-height:1.25;font-family:sans-serif;letter-spacing:0px;word-spacing:0px;fill:#ef2929;fill-opacity:1;stroke:none;stroke-width:0.54900628"
       xml:space="preserve"><tspan
         style="fill:#ef2929;stroke-width:0.54900628"
         y="67.124886"
         x="513.8924"
         id="tspan6348"
         sodipodi:role="line">to 10.1.1.1:5002</tspan></text>
    <rect
       style="fill:#2e3436;stroke:none;stroke-width:2.67968512;stroke-miterlimit:4;stroke-dasharray:none;stroke-opacity:1"
       id="rect6356"
       width="53.348347"
       height="14.951901"
       x="471.1727"
       y="165.91951" />
    <text
       xml:space="preserve"
       style="font-style:normal;font-weight:normal;font-size:12.64040756px;line-height:1.25;font-family:sans-serif;letter-spacing:0px;word-spacing:0px;fill:#ffffff;fill-opacity:1;stroke:none;stroke-width:0.54900628;stroke-opacity:1"
       x="471.5816"
       y="177.99673"
       id="text6354"><tspan
         sodipodi:role="line"
         id="tspan6352"
         x="471.5816"
         y="177.99673"
         style="fill:#ffffff;stroke:none;stroke-width:0.54900628;stroke-opacity:1">10.1.1.1</tspan></text>
    <rect
       transform="scale(-1,1)"
       y="197.69049"
       x="-815.75934"
       height="27.411676"
       width="181.72643"
       id="rect6388"
       style="fill:none;stroke:#2e3436;stroke-width:2.67968512;stroke-miterlimit:4;stroke-dasharray:none;stroke-opacity:1" />
  </g>
  <g
     inkscape:groupmode="layer"
     id="layer4"
     inkscape:label="interconnect"
     style="display:inline"
     transform="translate(-25.08173,2.5262527)">
    <path
       id="path3974"
       d="m 723.7148,161.71076 h 22.3905 c 7.0153,0 7.4636,1.96594 7.4636,5.05058 0,3.07581 -0.4483,5.05059 -7.4636,5.05059 h -22.3905 c -7.1289,0 -7.4635,-1.96595 -7.4635,-5.05059 0,-3.08464 0.6098,-5.05058 7.4635,-5.05058 z m 26.1217,12.62647 h -11.1959 c -3.4268,0 -3.7299,2.59724 -3.7299,5.68189 0,3.08465 0.1654,5.68192 3.7299,5.68192 h 11.1959 c 3.5075,0 3.7324,-2.60611 3.7324,-5.68192 0,-3.08465 -0.2249,-5.68189 -3.7324,-5.68189 z m -49.8808,-2.5253 h 11.1958 c 3.5063,0 3.7324,-1.97478 3.7324,-5.05059 0,-3.08464 -0.2261,-5.05058 -3.7324,-5.05058 h -11.1958 c -3.4269,0 -3.7324,1.96594 -3.7324,5.05058 0,3.08464 0.1679,5.05059 3.7324,5.05059 z m 26.2213,2.5253 h -22.3918 c -6.8537,0 -7.4635,2.59724 -7.4635,5.68189 0,3.08465 0.3346,5.68192 7.4635,5.68192 h 22.3905 c 7.0127,0 7.4635,-2.60611 7.4635,-5.68192 0,-3.08465 -0.4508,-5.68189 -7.4622,-5.68189 z m -5.2792,-14.38029 c 0.069,0.024 0.1439,0.0303 0.2109,0.0316 0.3422,0.0227 0.644,-0.27905 0.644,-0.63132 0,-0.0784 -0.015,-0.15532 -0.042,-0.22475 -0.1024,-1.3725 -0.6744,-10.76913 2.3913,-15.55834 0.1516,1.9912 1.1566,3.04804 2.0796,3.6036 0.041,0.0253 0.084,0.0442 0.13,0.0593 0.025,0.007 2.4002,0.8043 3.2083,3.19323 0.7703,2.28918 -0.1034,5.27281 -2.601,8.8663 -0.1325,0.19194 -0.1654,0.49495 -0.057,0.70204 0.1086,0.20708 0.3485,0.34722 0.5847,0.34722 0.7525,0 5.6579,-3.22733 8.6705,-8.3322 3.1048,-5.26524 3.1768,-10.88905 0.202,-16.26541 -0.1123,-0.20329 -0.2979,-0.32072 -0.5618,-0.32576 -0.2336,0.002 -0.4458,0.1364 -0.5531,0.34345 -0.284,0.55429 -1.2007,1.95078 -2.1894,2.16165 -0.054,-0.35861 -0.015,-1.13385 0.017,-1.77656 0.1528,-3.08084 0.4091,-8.23748 -4.1452,-11.432 -0.069,-0.0327 -1.7097,-0.82702 -3.1163,-0.82702 -0.6136,0 -1.1174,0.14774 -1.5,0.44192 -0.1831,0.14146 -0.2739,0.37121 -0.2374,0.59976 0.035,0.2298 0.1945,0.4192 0.4117,0.49748 0.026,0.01 2.5467,0.92048 3.0341,2.82706 0.2992,1.16669 -0.2323,2.52278 -1.5114,3.96849 -0.2487,0.2096 -1.1061,0.81064 -1.7538,0.81064 -0.1704,0.006 -0.5758,0 -0.8131,-0.8687 -0.075,-0.27526 -0.3246,-0.46593 -0.6086,-0.46593 -0.7374,0 -4.293,4.58215 -4.3284,4.62887 -1.7185,2.32453 -2.394,3.97353 -2.0669,5.04426 1.5152,4.94579 1.6162,7.68574 1.1831,8.00013 -1.8397,-0.86618 -4.2261,-2.53919 -3.9256,-3.43061 0.1024,-0.30429 -0.04,-0.63636 -0.3295,-0.77275 -0.2892,-0.13762 -0.6364,-0.0339 -0.8056,0.2374 -0.089,0.14269 -2.1591,3.55056 -0.7715,7.37384 1.1364,3.12885 4.2147,5.54048 9.1491,7.1731 z"
       inkscape:connector-curvature="0"
       style="display:inline;fill:#2e3436;stroke-width:1.06666672;enable-background:new" />
    <path
       style="display:inline;fill:none;stroke:#2e3436;stroke-width:2.68053341;stroke-linecap:butt;stroke-linejoin:miter;stroke-miterlimit:4;stroke-dasharray:none;stroke-opacity:1;enable-background:new"
       d="M 688.63359,171.72112 535.23987,171.60971"
       id="path3986"
       inkscape:connector-curvature="0"
       sodipodi:nodetypes="cc"
       inkscape:export-filename="/home/sylence/projects/Diplomarbeit/Paper/Bilder/topologie.png"
       inkscape:export-xdpi="160"
       inkscape:export-ydpi="160"
       inkscape:connector-type="polyline" />
    <g
       style="display:inline;enable-background:new"
       id="g19643"
       transform="translate(168.49997,966.38766)">
      <rect
         style="fill:#ef2929;fill-opacity:1;stroke:none"
         id="rect20302"
         width="58.557198"
         height="56.980125"
         x="698.70197"
         y="-837.66675"
         inkscape:export-filename="/home/sylence/projects/Diplomarbeit/Paper/Bilder/topologie.png"
         inkscape:export-xdpi="160"
         inkscape:export-ydpi="160"
         ry="6.75"
         rx="6.5" />
      <g
         style="fill:#eeeeec"
         transform="matrix(0.05485727,0,0,0.05485727,705.51854,-821.25072)"
         id="g10673">
        <path
           style="fill:#eeeeec"
           inkscape:connector-curvature="0"
           d="M 731.1,380.8 C 731.1,380.8 547.2,198 400,198 252.8,198 68.9,380.8 68.9,380.8 c -11.3,10.6 -11.4,28 0,38.4 0,0 183.9,182.8 331.1,182.8 147.2,0 331.1,-182.8 331.1,-182.8 11.2,-10.6 11.4,-27.9 0,-38.4 z M 401.4,547.2 c -80.9,0 -146.6,-65.6 -146.6,-146.6 0,-81 65.6,-146.6 146.6,-146.6 81,0 146.6,65.7 146.6,146.6 0,80.9 -65.7,146.6 -146.6,146.6 z"
           id="path10675" />
        <path
           style="fill:#eeeeec"
           inkscape:connector-curvature="0"
           d="m 399.7,305.8 c -51.4,0 -93.1,41.9 -93.1,93.4 0,51.5 41.7,93.4 93.1,93.4 51.4,0 93.1,-41.9 93.1,-93.4 0,-51.5 -41.7,-93.4 -93.1,-93.4 z m 35.1,93.7 c -15.9,0 -28.9,-13 -28.9,-29.1 0,-16.1 13,-29.1 28.9,-29.1 15.9,0 28.9,13 28.9,29.1 0,16.1 -12.8,29.1 -28.9,29.1 z"
           id="path10677" />
      </g>
      <g
         transform="translate(558.65419,-1278.5283)"
         style="font-style:normal;font-weight:normal;font-size:12.84203911px;font-family:'Bitstream Vera Sans';fill:#eeeeec;fill-opacity:1;stroke:none"
         id="text10833">
        <path
           inkscape:connector-curvature="0"
           d="m 153.23959,448.54323 v 1.23529 q -0.72111,-0.34488 -1.3607,-0.51418 -0.63959,-0.1693 -1.23529,-0.1693 -1.03464,0 -1.59899,0.40131 -0.55808,0.40131 -0.55808,1.14124 0,0.62078 0.36997,0.94057 0.37623,0.31353 1.41713,0.50792 l 0.76501,0.15676 q 1.41714,0.26963 2.08808,0.95312 0.67722,0.67722 0.67722,1.81845 0,1.36071 -0.9155,2.06301 -0.90922,0.7023 -2.67124,0.7023 -0.66468,0 -1.41714,-0.1505 -0.74619,-0.15049 -1.54882,-0.4452 v -1.30427 q 0.77128,0.43266 1.5112,0.65213 0.73992,0.21947 1.45476,0.21947 1.0848,0 1.67423,-0.4264 0.58943,-0.42639 0.58943,-1.21648 0,-0.68976 -0.4264,-1.07853 -0.42012,-0.38877 -1.38578,-0.58316 l -0.77128,-0.15049 q -1.41714,-0.28218 -2.05046,-0.88415 -0.63332,-0.60197 -0.63332,-1.67423 0,-1.24156 0.8716,-1.9564 0.87787,-0.71484 2.41415,-0.71484 0.65841,0 1.3419,0.11914 0.68348,0.11914 1.39832,0.35742 z"
           id="path6400" />
        <path
           inkscape:connector-curvature="0"
           d="m 161.73616,453.79793 v 0.56435 h -5.30487 q 0.0753,1.1914 0.71484,1.81845 0.64587,0.62078 1.79337,0.62078 0.66468,0 1.28546,-0.16303 0.62705,-0.16303 1.24156,-0.4891 v 1.09107 q -0.62078,0.26336 -1.27291,0.40131 -0.65214,0.13796 -1.32308,0.13796 -1.6805,0 -2.66498,-0.97821 -0.9782,-0.9782 -0.9782,-2.64616 0,-1.72439 0.92804,-2.73395 0.93431,-1.01582 2.51448,-1.01582 1.41714,0 2.23858,0.91549 0.82771,0.90923 0.82771,2.47686 z m -1.15378,-0.33861 q -0.0125,-0.94685 -0.53299,-1.51119 -0.51419,-0.56435 -1.36698,-0.56435 -0.96566,0 -1.54882,0.54553 -0.57689,0.54554 -0.66468,1.53628 l 4.11347,-0.006 z"
           id="path6402" />
        <path
           inkscape:connector-curvature="0"
           d="m 169.46772,453.35899 v 4.23888 h -1.15378 v -4.20125 q 0,-0.99702 -0.38877,-1.49239 -0.38877,-0.49537 -1.16632,-0.49537 -0.93431,0 -1.47357,0.5957 -0.53927,0.5957 -0.53927,1.62407 v 3.96924 h -1.16005 v -7.02299 h 1.16005 v 1.09107 q 0.41386,-0.63332 0.97193,-0.94685 0.56435,-0.31352 1.298,-0.31352 1.21021,0 1.831,0.75246 0.62078,0.74619 0.62078,2.20095 z"
           id="path6404" />
        <path
           inkscape:connector-curvature="0"
           d="m 176.2587,450.78181 v 1.09107 q -0.4891,-0.25082 -1.01583,-0.37623 -0.52672,-0.12541 -1.09107,-0.12541 -0.85906,0 -1.29173,0.26336 -0.42639,0.26336 -0.42639,0.79009 0,0.40131 0.30725,0.63332 0.30726,0.22574 1.2353,0.43266 l 0.39504,0.0878 q 1.22902,0.26336 1.7432,0.74619 0.52046,0.47656 0.52046,1.33563 0,0.9782 -0.77755,1.54882 -0.77127,0.57062 -2.12571,0.57062 -0.56434,0 -1.17885,-0.11287 -0.60825,-0.1066 -1.28546,-0.32607 v -1.1914 q 0.63959,0.33234 1.26037,0.50164 0.62079,0.16303 1.22903,0.16303 0.81517,0 1.2541,-0.2759 0.43894,-0.28217 0.43894,-0.79009 0,-0.47029 -0.3198,-0.72111 -0.31352,-0.25082 -1.38578,-0.48283 l -0.40132,-0.0941 q -1.07226,-0.22574 -1.54882,-0.68976 -0.47656,-0.47029 -0.47656,-1.28546 0,-0.99074 0.7023,-1.53001 0.7023,-0.53926 1.99403,-0.53926 0.63959,0 1.20394,0.0941 0.56435,0.0941 1.04091,0.28218 z"
           id="path6406" />
        <path
           inkscape:connector-curvature="0"
           d="m 181.19987,451.38378 q -0.92803,0 -1.4673,0.72738 -0.53926,0.72111 -0.53926,1.98149 0,1.26037 0.53299,1.98775 0.53927,0.72111 1.47357,0.72111 0.92177,0 1.46104,-0.72738 0.53926,-0.72738 0.53926,-1.98148 0,-1.24784 -0.53926,-1.97522 -0.53927,-0.73365 -1.46104,-0.73365 z m 0,-0.9782 q 1.50493,0 2.36399,0.9782 0.85906,0.9782 0.85906,2.70887 0,1.72439 -0.85906,2.70886 -0.85906,0.97821 -2.36399,0.97821 -1.51119,0 -2.37026,-0.97821 -0.85279,-0.98447 -0.85279,-2.70886 0,-1.73067 0.85279,-2.70887 0.85907,-0.9782 2.37026,-0.9782 z"
           id="path6408" />
        <path
           inkscape:connector-curvature="0"
           d="m 190.39874,451.65341 q -0.19439,-0.11287 -0.4264,-0.16303 -0.22574,-0.0564 -0.50164,-0.0564 -0.9782,0 -1.50493,0.6396 -0.52045,0.63332 -0.52045,1.82472 v 3.69961 h -1.16005 v -7.02299 h 1.16005 v 1.09107 q 0.36369,-0.63959 0.94685,-0.94685 0.58316,-0.31352 1.41714,-0.31352 0.11914,0 0.26336,0.0188 0.14422,0.0125 0.3198,0.0439 l 0.006,1.18513 z"
           id="path6410" />
      </g>
    </g>
    <circle
       r="13.499999"
       cy="88.802399"
       cx="458.42572"
       id="circle8147"
       style="display:inline;fill:#fcaf3e;stroke:none;stroke-width:2.68000007;stroke-miterlimit:4;stroke-dasharray:none;stroke-opacity:1;enable-background:new" />
    <text
       xml:space="preserve"
       style="font-style:normal;font-weight:normal;font-size:18.4167347px;line-height:1.25;font-family:sans-serif;letter-spacing:0px;word-spacing:0px;display:inline;fill:#ffffff;fill-opacity:1;stroke:none;stroke-width:1;enable-background:new"
       x="452.13101"
       y="95.51532"
       id="text8151"><tspan
         sodipodi:role="line"
         id="tspan8149"
         x="452.13101"
         y="95.51532"
         style="fill:#ffffff;stroke-width:1">A</tspan></text>
    <path
       inkscape:export-ydpi="160"
       inkscape:export-xdpi="160"
       inkscape:export-filename="/home/sylence/projects/Diplomarbeit/Paper/Bilder/topologie.png"
       sodipodi:nodetypes="cc"
       inkscape:connector-curvature="0"
       id="path8121"
       d="m 487.42655,45.939965 -0.0555,64.620495"
       style="display:inline;fill:#ef2929;stroke:#ef2929;stroke-width:2.67968512;stroke-linecap:butt;stroke-linejoin:miter;stroke-miterlimit:4;stroke-dasharray:none;stroke-opacity:1;marker-end:url(#marker5276)"
       inkscape:connector-type="polyline" />
    <path
       inkscape:connector-type="polyline"
       inkscape:export-ydpi="160"
       inkscape:export-xdpi="160"
       inkscape:export-filename="/home/sylence/projects/Diplomarbeit/Paper/Bilder/topologie.png"
       sodipodi:nodetypes="cc"
       inkscape:connector-curvature="0"
       id="path5405"
       d="m 861.27323,171.72112 -95.15054,-0.11141"
       style="display:inline;fill:none;stroke:#2e3436;stroke-width:2.68053317;stroke-linecap:butt;stroke-linejoin:miter;stroke-miterlimit:4;stroke-dasharray:none;stroke-opacity:1;enable-background:new" />
    <path
       inkscape:connector-type="polyline"
       inkscape:export-ydpi="160"
       inkscape:export-xdpi="160"
       inkscape:export-filename="/home/sylence/projects/Diplomarbeit/Paper/Bilder/topologie.png"
       sodipodi:nodetypes="cc"
       inkscape:connector-curvature="0"
       id="path6226"
       d="m 498.67223,197.49908 0.11141,-9.71284"
       style="display:inline;fill:none;stroke:#2e3436;stroke-width:2.68053341;stroke-linecap:butt;stroke-linejoin:miter;stroke-miterlimit:4;stroke-dasharray:none;stroke-opacity:1;enable-background:new" />
    <path
       style="display:inline;fill:none;stroke:#2e3436;stroke-width:2.68053341;stroke-linecap:butt;stroke-linejoin:miter;stroke-miterlimit:4;stroke-dasharray:none;stroke-opacity:1;enable-background:new"
       d="m 725.80471,197.49908 0.11141,-9.71284"
       id="path6228"
       inkscape:connector-curvature="0"
       sodipodi:nodetypes="cc"
       inkscape:export-filename="/home/sylence/projects/Diplomarbeit/Paper/Bilder/topologie.png"
       inkscape:export-xdpi="160"
       inkscape:export-ydpi="160"
       inkscape:connector-type="polyline" />
    <path
       style="display:inline;fill:#2e3436;stroke-width:1.06666672;enable-background:new"
       inkscape:connector-curvature="0"
       d="m 267.2476,161.71076 h -22.3905 c -7.0153,0 -7.4636,1.96594 -7.4636,5.05058 0,3.07581 0.4483,5.05059 7.4636,5.05059 h 22.3905 c 7.1289,0 7.4635,-1.96595 7.4635,-5.05059 0,-3.08464 -0.6098,-5.05058 -7.4635,-5.05058 z m -26.1217,12.62647 h 11.1959 c 3.4268,0 3.7299,2.59724 3.7299,5.68189 0,3.08465 -0.1654,5.68192 -3.7299,5.68192 h -11.1959 c -3.5075,0 -3.7324,-2.60611 -3.7324,-5.68192 0,-3.08465 0.2249,-5.68189 3.7324,-5.68189 z m 49.8808,-2.5253 h -11.1958 c -3.5063,0 -3.7324,-1.97478 -3.7324,-5.05059 0,-3.08464 0.2261,-5.05058 3.7324,-5.05058 h 11.1958 c 3.4269,0 3.7324,1.96594 3.7324,5.05058 0,3.08464 -0.1679,5.05059 -3.7324,5.05059 z m -26.2213,2.5253 h 22.3918 c 6.8537,0 7.4635,2.59724 7.4635,5.68189 0,3.08465 -0.3346,5.68192 -7.4635,5.68192 h -22.3905 c -7.0127,0 -7.4635,-2.60611 -7.4635,-5.68192 0,-3.08465 0.4508,-5.68189 7.4622,-5.68189 z m 5.2792,-14.38029 c -0.069,0.024 -0.1439,0.0303 -0.2109,0.0316 -0.3422,0.0227 -0.644,-0.27905 -0.644,-0.63132 0,-0.0784 0.015,-0.15532 0.042,-0.22475 0.1024,-1.3725 0.6744,-10.76913 -2.3913,-15.55834 -0.1516,1.9912 -1.1566,3.04804 -2.0796,3.6036 -0.041,0.0253 -0.084,0.0442 -0.13,0.0593 -0.025,0.007 -2.4002,0.8043 -3.2083,3.19323 -0.7703,2.28918 0.1034,5.27281 2.601,8.8663 0.1325,0.19194 0.1654,0.49495 0.057,0.70204 -0.1086,0.20708 -0.3485,0.34722 -0.5847,0.34722 -0.7525,0 -5.6579,-3.22733 -8.6705,-8.3322 -3.1048,-5.26524 -3.1768,-10.88905 -0.202,-16.26541 0.1123,-0.20329 0.2979,-0.32072 0.5618,-0.32576 0.2336,0.002 0.4458,0.1364 0.5531,0.34345 0.284,0.55429 1.2007,1.95078 2.1894,2.16165 0.054,-0.35861 0.015,-1.13385 -0.017,-1.77656 -0.1528,-3.08084 -0.4091,-8.23748 4.1452,-11.432 0.069,-0.0327 1.7097,-0.82702 3.1163,-0.82702 0.6136,0 1.1174,0.14774 1.5,0.44192 0.1831,0.14146 0.2739,0.37121 0.2374,0.59976 -0.035,0.2298 -0.1945,0.4192 -0.4117,0.49748 -0.026,0.01 -2.5467,0.92048 -3.0341,2.82706 -0.2992,1.16669 0.2323,2.52278 1.5114,3.96849 0.2487,0.2096 1.1061,0.81064 1.7538,0.81064 0.1704,0.006 0.5758,0 0.8131,-0.8687 0.075,-0.27526 0.3246,-0.46593 0.6086,-0.46593 0.7374,0 4.293,4.58215 4.3284,4.62887 1.7185,2.32453 2.394,3.97353 2.0669,5.04426 -1.5152,4.94579 -1.6162,7.68574 -1.1831,8.00013 1.8397,-0.86618 4.2261,-2.53919 3.9256,-3.43061 -0.1024,-0.30429 0.04,-0.63636 0.3295,-0.77275 0.2892,-0.13762 0.6364,-0.0339 0.8056,0.2374 0.089,0.14269 2.1591,3.55056 0.7715,7.37384 -1.1364,3.12885 -4.2147,5.54048 -9.1491,7.1731 z"
       id="path6292" />
    <g
       transform="translate(-633.4987,966.38766)"
       id="g6316"
       style="display:inline;enable-background:new">
      <rect
         rx="6.5"
         ry="6.75"
         inkscape:export-ydpi="160"
         inkscape:export-xdpi="160"
         inkscape:export-filename="/home/sylence/projects/Diplomarbeit/Paper/Bilder/topologie.png"
         y="-837.66675"
         x="698.70197"
         height="56.980125"
         width="58.557198"
         id="rect6294"
         style="fill:#ef2929;fill-opacity:1;stroke:none" />
      <g
         id="g6300"
         transform="matrix(0.05485727,0,0,0.05485727,705.51854,-821.25072)"
         style="fill:#eeeeec">
        <path
           id="path6296"
           d="M 731.1,380.8 C 731.1,380.8 547.2,198 400,198 252.8,198 68.9,380.8 68.9,380.8 c -11.3,10.6 -11.4,28 0,38.4 0,0 183.9,182.8 331.1,182.8 147.2,0 331.1,-182.8 331.1,-182.8 11.2,-10.6 11.4,-27.9 0,-38.4 z M 401.4,547.2 c -80.9,0 -146.6,-65.6 -146.6,-146.6 0,-81 65.6,-146.6 146.6,-146.6 81,0 146.6,65.7 146.6,146.6 0,80.9 -65.7,146.6 -146.6,146.6 z"
           inkscape:connector-curvature="0"
           style="fill:#eeeeec" />
        <path
           id="path6298"
           d="m 399.7,305.8 c -51.4,0 -93.1,41.9 -93.1,93.4 0,51.5 41.7,93.4 93.1,93.4 51.4,0 93.1,-41.9 93.1,-93.4 0,-51.5 -41.7,-93.4 -93.1,-93.4 z m 35.1,93.7 c -15.9,0 -28.9,-13 -28.9,-29.1 0,-16.1 13,-29.1 28.9,-29.1 15.9,0 28.9,13 28.9,29.1 0,16.1 -12.8,29.1 -28.9,29.1 z"
           inkscape:connector-curvature="0"
           style="fill:#eeeeec" />
      </g>
      <g
         id="g6314"
         style="font-style:normal;font-weight:normal;font-size:12.84203911px;font-family:'Bitstream Vera Sans';fill:#eeeeec;fill-opacity:1;stroke:none"
         transform="translate(558.65419,-1278.5283)">
        <path
           id="path6302"
           d="m 153.23959,448.54323 v 1.23529 q -0.72111,-0.34488 -1.3607,-0.51418 -0.63959,-0.1693 -1.23529,-0.1693 -1.03464,0 -1.59899,0.40131 -0.55808,0.40131 -0.55808,1.14124 0,0.62078 0.36997,0.94057 0.37623,0.31353 1.41713,0.50792 l 0.76501,0.15676 q 1.41714,0.26963 2.08808,0.95312 0.67722,0.67722 0.67722,1.81845 0,1.36071 -0.9155,2.06301 -0.90922,0.7023 -2.67124,0.7023 -0.66468,0 -1.41714,-0.1505 -0.74619,-0.15049 -1.54882,-0.4452 v -1.30427 q 0.77128,0.43266 1.5112,0.65213 0.73992,0.21947 1.45476,0.21947 1.0848,0 1.67423,-0.4264 0.58943,-0.42639 0.58943,-1.21648 0,-0.68976 -0.4264,-1.07853 -0.42012,-0.38877 -1.38578,-0.58316 l -0.77128,-0.15049 q -1.41714,-0.28218 -2.05046,-0.88415 -0.63332,-0.60197 -0.63332,-1.67423 0,-1.24156 0.8716,-1.9564 0.87787,-0.71484 2.41415,-0.71484 0.65841,0 1.3419,0.11914 0.68348,0.11914 1.39832,0.35742 z"
           inkscape:connector-curvature="0" />
        <path
           id="path6304"
           d="m 161.73616,453.79793 v 0.56435 h -5.30487 q 0.0753,1.1914 0.71484,1.81845 0.64587,0.62078 1.79337,0.62078 0.66468,0 1.28546,-0.16303 0.62705,-0.16303 1.24156,-0.4891 v 1.09107 q -0.62078,0.26336 -1.27291,0.40131 -0.65214,0.13796 -1.32308,0.13796 -1.6805,0 -2.66498,-0.97821 -0.9782,-0.9782 -0.9782,-2.64616 0,-1.72439 0.92804,-2.73395 0.93431,-1.01582 2.51448,-1.01582 1.41714,0 2.23858,0.91549 0.82771,0.90923 0.82771,2.47686 z m -1.15378,-0.33861 q -0.0125,-0.94685 -0.53299,-1.51119 -0.51419,-0.56435 -1.36698,-0.56435 -0.96566,0 -1.54882,0.54553 -0.57689,0.54554 -0.66468,1.53628 l 4.11347,-0.006 z"
           inkscape:connector-curvature="0" />
        <path
           id="path6306"
           d="m 169.46772,453.35899 v 4.23888 h -1.15378 v -4.20125 q 0,-0.99702 -0.38877,-1.49239 -0.38877,-0.49537 -1.16632,-0.49537 -0.93431,0 -1.47357,0.5957 -0.53927,0.5957 -0.53927,1.62407 v 3.96924 h -1.16005 v -7.02299 h 1.16005 v 1.09107 q 0.41386,-0.63332 0.97193,-0.94685 0.56435,-0.31352 1.298,-0.31352 1.21021,0 1.831,0.75246 0.62078,0.74619 0.62078,2.20095 z"
           inkscape:connector-curvature="0" />
        <path
           id="path6308"
           d="m 176.2587,450.78181 v 1.09107 q -0.4891,-0.25082 -1.01583,-0.37623 -0.52672,-0.12541 -1.09107,-0.12541 -0.85906,0 -1.29173,0.26336 -0.42639,0.26336 -0.42639,0.79009 0,0.40131 0.30725,0.63332 0.30726,0.22574 1.2353,0.43266 l 0.39504,0.0878 q 1.22902,0.26336 1.7432,0.74619 0.52046,0.47656 0.52046,1.33563 0,0.9782 -0.77755,1.54882 -0.77127,0.57062 -2.12571,0.57062 -0.56434,0 -1.17885,-0.11287 -0.60825,-0.1066 -1.28546,-0.32607 v -1.1914 q 0.63959,0.33234 1.26037,0.50164 0.62079,0.16303 1.22903,0.16303 0.81517,0 1.2541,-0.2759 0.43894,-0.28217 0.43894,-0.79009 0,-0.47029 -0.3198,-0.72111 -0.31352,-0.25082 -1.38578,-0.48283 l -0.40132,-0.0941 q -1.07226,-0.22574 -1.54882,-0.68976 -0.47656,-0.47029 -0.47656,-1.28546 0,-0.99074 0.7023,-1.53001 0.7023,-0.53926 1.99403,-0.53926 0.63959,0 1.20394,0.0941 0.56435,0.0941 1.04091,0.28218 z"
           inkscape:connector-curvature="0" />
        <path
           id="path6310"
           d="m 181.19987,451.38378 q -0.92803,0 -1.4673,0.72738 -0.53926,0.72111 -0.53926,1.98149 0,1.26037 0.53299,1.98775 0.53927,0.72111 1.47357,0.72111 0.92177,0 1.46104,-0.72738 0.53926,-0.72738 0.53926,-1.98148 0,-1.24784 -0.53926,-1.97522 -0.53927,-0.73365 -1.46104,-0.73365 z m 0,-0.9782 q 1.50493,0 2.36399,0.9782 0.85906,0.9782 0.85906,2.70887 0,1.72439 -0.85906,2.70886 -0.85906,0.97821 -2.36399,0.97821 -1.51119,0 -2.37026,-0.97821 -0.85279,-0.98447 -0.85279,-2.70886 0,-1.73067 0.85279,-2.70887 0.85907,-0.9782 2.37026,-0.9782 z"
           inkscape:connector-curvature="0" />
        <path
           id="path6312"
           d="m 190.39874,451.65341 q -0.19439,-0.11287 -0.4264,-0.16303 -0.22574,-0.0564 -0.50164,-0.0564 -0.9782,0 -1.50493,0.6396 -0.52045,0.63332 -0.52045,1.82472 v 3.69961 h -1.16005 v -7.02299 h 1.16005 v 1.09107 q 0.36369,-0.63959 0.94685,-0.94685 0.58316,-0.31352 1.41714,-0.31352 0.11914,0 0.26336,0.0188 0.14422,0.0125 0.3198,0.0439 l 0.006,1.18513 z"
           inkscape:connector-curvature="0" />
      </g>
    </g>
    <path
       style="display:inline;fill:none;stroke:#2e3436;stroke-width:2.68053317;stroke-linecap:butt;stroke-linejoin:miter;stroke-miterlimit:4;stroke-dasharray:none;stroke-opacity:1;enable-background:new"
       d="m 304.1746,171.72112 158.14107,-0.11141"
       id="path6318"
       inkscape:connector-curvature="0"
       sodipodi:nodetypes="cc"
       inkscape:export-filename="/home/sylence/projects/Diplomarbeit/Paper/Bilder/topologie.png"
       inkscape:export-xdpi="160"
       inkscape:export-ydpi="160"
       inkscape:connector-type="polyline" />
    <path
       inkscape:connector-type="polyline"
       inkscape:export-ydpi="160"
       inkscape:export-xdpi="160"
       inkscape:export-filename="/home/sylence/projects/Diplomarbeit/Paper/Bilder/topologie.png"
       sodipodi:nodetypes="cc"
       inkscape:connector-curvature="0"
       id="path6320"
       d="m 267.08635,197.49908 -0.11141,-9.71284"
       style="display:inline;fill:none;stroke:#2e3436;stroke-width:2.68053341;stroke-linecap:butt;stroke-linejoin:miter;stroke-miterlimit:4;stroke-dasharray:none;stroke-opacity:1;enable-background:new" />
    <path
       inkscape:connector-type="polyline"
       inkscape:export-ydpi="160"
       inkscape:export-xdpi="160"
       inkscape:export-filename="/home/sylence/projects/Diplomarbeit/Paper/Bilder/topologie.png"
       sodipodi:nodetypes="cc"
       inkscape:connector-curvature="0"
       id="path6322"
       d="m 131.61783,171.72112 95.15054,-0.11141"
       style="display:inline;fill:none;stroke:#2e3436;stroke-width:2.68053317;stroke-linecap:butt;stroke-linejoin:miter;stroke-miterlimit:4;stroke-dasharray:none;stroke-opacity:1;enable-background:new" />
    <g
       id="g6361"
       transform="translate(-2,0.67766571)">
      <circle
         r="13.499999"
         cy="88.124733"
         cx="536.25623"
         id="circle6324"
         style="display:inline;fill:#fcaf3e;stroke:none;stroke-width:2.68000007;stroke-miterlimit:4;stroke-dasharray:none;stroke-opacity:1;enable-background:new" />
      <text
         xml:space="preserve"
         style="font-style:normal;font-weight:normal;font-size:18.4167347px;line-height:1.25;font-family:sans-serif;letter-spacing:0px;word-spacing:0px;display:inline;fill:#ffffff;fill-opacity:1;stroke:none;stroke-width:1;enable-background:new"
         x="529.96155"
         y="94.837654"
         id="text6328"><tspan
           sodipodi:role="line"
           id="tspan6326"
           x="529.96155"
           y="94.837654"
           style="fill:#ffffff;stroke-width:1">B</tspan></text>
    </g>
    <circle
       r="13.499999"
       cy="133.37956"
       cx="693.14325"
       id="circle6330"
       style="display:inline;fill:#fcaf3e;stroke:none;stroke-width:2.68000007;stroke-miterlimit:4;stroke-dasharray:none;stroke-opacity:1;enable-background:new" />
    <text
       xml:space="preserve"
       style="font-style:normal;font-weight:normal;font-size:18.4167347px;line-height:1.25;font-family:sans-serif;letter-spacing:0px;word-spacing:0px;display:inline;fill:#ffffff;fill-opacity:1;stroke:none;stroke-width:1;enable-background:new"
       x="686.69562"
       y="140.08351"
       id="text6334"><tspan
         sodipodi:role="line"
         id="tspan6332"
         x="686.69562"
         y="140.08351"
         style="fill:#ffffff;stroke-width:1">C</tspan></text>
    <path
       inkscape:connector-type="polyline"
       style="display:inline;fill:none;stroke:#ef2929;stroke-width:2.67968512;stroke-linecap:butt;stroke-linejoin:miter;stroke-miterlimit:4;stroke-dasharray:none;stroke-opacity:1;marker-end:url(#marker6344)"
       d="m 507.42655,45.599256 -0.0555,69.826324"
       id="path6340"
       inkscape:connector-curvature="0"
       sodipodi:nodetypes="cc"
       inkscape:export-filename="/home/sylence/projects/Diplomarbeit/Paper/Bilder/topologie.png"
       inkscape:export-xdpi="160"
       inkscape:export-ydpi="160" />
    <rect
       style="fill:#ef2929;stroke:none;stroke-width:2.67968512;stroke-miterlimit:4;stroke-dasharray:none;stroke-opacity:1"
       id="rect6346"
       width="20.152538"
       height="4.5961938"
       x="476.56937"
       y="115.74078" />
    <path
       inkscape:connector-type="polyline"
       inkscape:export-ydpi="160"
       inkscape:export-xdpi="160"
       inkscape:export-filename="/home/sylence/projects/Diplomarbeit/Paper/Bilder/topologie.png"
       sodipodi:nodetypes="cc"
       inkscape:connector-curvature="0"
       id="path6363"
       d="M 688.63359,175.72112 535.23987,175.60971"
       style="display:inline;fill:#ef2929;stroke:#ef2929;stroke-width:2.68099999;stroke-linecap:butt;stroke-linejoin:miter;stroke-miterlimit:4;stroke-dasharray:none;stroke-opacity:1;marker-start:url(#marker6372);enable-background:new" />
    <path
       style="display:inline;fill:#ef2929;stroke:#ef2929;stroke-width:2.68053317;stroke-linecap:butt;stroke-linejoin:miter;stroke-miterlimit:4;stroke-dasharray:none;stroke-opacity:1;enable-background:new;marker-start:url(#marker6382)"
       d="m 861.27323,175.72112 -95.15054,-0.11141"
       id="path6374"
       inkscape:connector-curvature="0"
       sodipodi:nodetypes="cc"
       inkscape:export-filename="/home/sylence/projects/Diplomarbeit/Paper/Bilder/topologie.png"
       inkscape:export-xdpi="160"
       inkscape:export-ydpi="160"
       inkscape:connector-type="polyline" />
  </g>
</svg>
