<?xml version="1.0" encoding="UTF-8" standalone="no"?>
<!-- Created with Inkscape (http://www.inkscape.org/) -->

<svg
   xmlns:dc="http://purl.org/dc/elements/1.1/"
   xmlns:cc="http://creativecommons.org/ns#"
   xmlns:rdf="http://www.w3.org/1999/02/22-rdf-syntax-ns#"
   xmlns:svg="http://www.w3.org/2000/svg"
   xmlns="http://www.w3.org/2000/svg"
   xmlns:xlink="http://www.w3.org/1999/xlink"
   xmlns:sodipodi="http://sodipodi.sourceforge.net/DTD/sodipodi-0.dtd"
   xmlns:inkscape="http://www.inkscape.org/namespaces/inkscape"
   width="984.74713"
   height="295.59116"
   id="svg2"
   sodipodi:version="0.32"
   inkscape:version="0.92.1 r15371"
   version="1.0"
   sodipodi:docname="push.svg"
   inkscape:output_extension="org.inkscape.output.svg.inkscape"
   inkscape:export-filename="/home/sylence/projects/HoneySens/honeysens-website/static/images/push.png"
   inkscape:export-xdpi="320"
   inkscape:export-ydpi="320"
   style="enable-background:new">
  <defs
     id="defs4">
    <marker
       inkscape:stockid="Arrow1Mend"
       orient="auto"
       refY="0"
       refX="0"
       id="marker8139"
       style="overflow:visible"
       inkscape:isstock="true">
      <path
         id="path8137"
         d="M 0,0 5,-5 -12.5,0 5,5 Z"
         style="fill:#ef2929;fill-opacity:1;fill-rule:evenodd;stroke:#ef2929;stroke-width:1.00000003pt;stroke-opacity:1"
         transform="matrix(-0.4,0,0,-0.4,-4,0)"
         inkscape:connector-curvature="0" />
    </marker>
    <marker
       inkscape:stockid="Arrow1Mend"
       orient="auto"
       refY="0"
       refX="0"
       id="marker8135"
       style="overflow:visible"
       inkscape:isstock="true">
      <path
         id="path8133"
         d="M 0,0 5,-5 -12.5,0 5,5 Z"
         style="fill:#ef2929;fill-opacity:1;fill-rule:evenodd;stroke:#ef2929;stroke-width:1.00000003pt;stroke-opacity:1"
         transform="matrix(-0.4,0,0,-0.4,-4,0)"
         inkscape:connector-curvature="0" />
    </marker>
    <marker
       inkscape:stockid="Arrow1Mend"
       orient="auto"
       refY="0"
       refX="0"
       id="marker8131"
       style="overflow:visible"
       inkscape:isstock="true">
      <path
         id="path8129"
         d="M 0,0 5,-5 -12.5,0 5,5 Z"
         style="fill:#ef2929;fill-opacity:1;fill-rule:evenodd;stroke:#ef2929;stroke-width:1.00000003pt;stroke-opacity:1"
         transform="matrix(-0.4,0,0,-0.4,-4,0)"
         inkscape:connector-curvature="0" />
    </marker>
    <marker
       inkscape:stockid="Arrow2Lend"
       orient="auto"
       refY="0"
       refX="0"
       id="Arrow2Lend"
       style="overflow:visible"
       inkscape:isstock="true">
      <path
         id="path7878"
         style="fill:#ef2929;fill-opacity:1;fill-rule:evenodd;stroke:#ef2929;stroke-width:0.625;stroke-linejoin:round;stroke-opacity:1"
         d="M 8.7185878,4.0337352 -2.2072895,0.01601326 8.7185884,-4.0017078 c -1.7454984,2.3720609 -1.7354408,5.6174519 -6e-7,8.035443 z"
         transform="matrix(-1.1,0,0,-1.1,-1.1,0)"
         inkscape:connector-curvature="0" />
    </marker>
    <marker
       inkscape:stockid="Arrow2Lstart"
       orient="auto"
       refY="0"
       refX="0"
       id="Arrow2Lstart"
       style="overflow:visible"
       inkscape:isstock="true">
      <path
         id="path7875"
         style="fill:#ef2929;fill-opacity:1;fill-rule:evenodd;stroke:#ef2929;stroke-width:0.625;stroke-linejoin:round;stroke-opacity:1"
         d="M 8.7185878,4.0337352 -2.2072895,0.01601326 8.7185884,-4.0017078 c -1.7454984,2.3720609 -1.7354408,5.6174519 -6e-7,8.035443 z"
         transform="matrix(1.1,0,0,1.1,1.1,0)"
         inkscape:connector-curvature="0" />
    </marker>
    <marker
       inkscape:stockid="Arrow1Lstart"
       orient="auto"
       refY="0"
       refX="0"
       id="Arrow1Lstart"
       style="overflow:visible"
       inkscape:isstock="true">
      <path
         id="path7857"
         d="M 0,0 5,-5 -12.5,0 5,5 Z"
         style="fill:#ef2929;fill-opacity:1;fill-rule:evenodd;stroke:#ef2929;stroke-width:1.00000003pt;stroke-opacity:1"
         transform="matrix(0.8,0,0,0.8,10,0)"
         inkscape:connector-curvature="0" />
    </marker>
    <marker
       inkscape:stockid="Arrow1Mend"
       orient="auto"
       refY="0"
       refX="0"
       id="Arrow1Mend"
       style="overflow:visible"
       inkscape:isstock="true">
      <path
         id="path7866"
         d="M 0,0 5,-5 -12.5,0 5,5 Z"
         style="fill:#ef2929;fill-opacity:1;fill-rule:evenodd;stroke:#ef2929;stroke-width:1.00000003pt;stroke-opacity:1"
         transform="matrix(-0.4,0,0,-0.4,-4,0)"
         inkscape:connector-curvature="0" />
    </marker>
    <marker
       inkscape:stockid="Arrow1Lend"
       orient="auto"
       refY="0"
       refX="0"
       id="Arrow1Lend"
       style="overflow:visible"
       inkscape:isstock="true">
      <path
         id="path7860"
         d="M 0,0 5,-5 -12.5,0 5,5 Z"
         style="fill:#ef2929;fill-opacity:1;fill-rule:evenodd;stroke:#ef2929;stroke-width:1.00000003pt;stroke-opacity:1"
         transform="matrix(-0.8,0,0,-0.8,-10,0)"
         inkscape:connector-curvature="0" />
    </marker>
    <linearGradient
       id="linearGradient4657">
      <stop
         id="stop4659"
         offset="0"
         style="stop-color:#ffffff;stop-opacity:0;" />
      <stop
         id="stop4661"
         offset="1"
         style="stop-color:#73d216;stop-opacity:1;" />
    </linearGradient>
    <linearGradient
       id="linearGradient3280">
      <stop
         style="stop-color:#ffffff;stop-opacity:0;"
         offset="0"
         id="stop3282" />
      <stop
         style="stop-color:#729fcf;stop-opacity:1;"
         offset="1"
         id="stop3284" />
    </linearGradient>
    <linearGradient
       inkscape:collect="always"
       xlink:href="#linearGradient4657"
       id="linearGradient4694"
       x1="1258.1261"
       y1="292.80933"
       x2="1257.9845"
       y2="557.52893"
       gradientUnits="userSpaceOnUse" />
    <linearGradient
       inkscape:collect="always"
       xlink:href="#aigrd43-7"
       id="linearGradient16076"
       gradientUnits="userSpaceOnUse"
       gradientTransform="matrix(0.9983,-0.05841583,0.05841583,0.9983,-6.1355,5.3535)"
       x1="87.867203"
       y1="99.068398"
       x2="87.920502"
       y2="107.0603" />
    <linearGradient
       y2="107.0603"
       x2="87.920502"
       y1="99.068398"
       x1="87.867203"
       gradientTransform="matrix(0.9983,-0.05841583,0.05841583,0.9983,-6.1355,5.3535)"
       gradientUnits="userSpaceOnUse"
       id="linearGradient16076-1"
       xlink:href="#aigrd43-7"
       inkscape:collect="always" />
    <linearGradient
       gradientUnits="userSpaceOnUse"
       y2="557.52893"
       x2="1257.9845"
       y1="292.80933"
       x1="1258.1261"
       id="linearGradient4694-1"
       xlink:href="#linearGradient4657-2"
       inkscape:collect="always" />
    <linearGradient
       id="linearGradient3280-0">
      <stop
         id="stop3282-3"
         offset="0"
         style="stop-color:#ffffff;stop-opacity:0;" />
      <stop
         id="stop3284-6"
         offset="1"
         style="stop-color:#729fcf;stop-opacity:1;" />
    </linearGradient>
    <linearGradient
       id="linearGradient4657-2">
      <stop
         style="stop-color:#ffffff;stop-opacity:0;"
         offset="0"
         id="stop4659-0" />
      <stop
         style="stop-color:#73d216;stop-opacity:1;"
         offset="1"
         id="stop4661-5" />
    </linearGradient>
    <linearGradient
       gradientUnits="userSpaceOnUse"
       y2="557.52893"
       x2="1257.9845"
       y1="292.80933"
       x1="1258.1261"
       id="linearGradient5187"
       xlink:href="#linearGradient4657"
       inkscape:collect="always" />
    <linearGradient
       y2="107.0603"
       x2="87.920502"
       y1="99.068398"
       x1="87.867203"
       gradientTransform="matrix(0.9983,-0.05841583,0.05841583,0.9983,-6.1355,5.3535)"
       gradientUnits="userSpaceOnUse"
       id="linearGradient16076-14"
       xlink:href="#aigrd43-7"
       inkscape:collect="always" />
    <linearGradient
       inkscape:collect="always"
       xlink:href="#aigrd43-7"
       id="linearGradient16076-1-5"
       gradientUnits="userSpaceOnUse"
       gradientTransform="matrix(0.9983,-0.05841583,0.05841583,0.9983,-6.1355,5.3535)"
       x1="87.867203"
       y1="99.068398"
       x2="87.920502"
       y2="107.0603" />
    <linearGradient
       gradientUnits="userSpaceOnUse"
       y2="557.52893"
       x2="1257.9845"
       y1="292.80933"
       x1="1258.1261"
       id="linearGradient7462"
       xlink:href="#linearGradient4657"
       inkscape:collect="always" />
    <linearGradient
       y2="107.0603"
       x2="87.920502"
       y1="99.068398"
       x1="87.867203"
       gradientTransform="matrix(0.9983,-0.05841583,0.05841583,0.9983,-6.1355,5.3535)"
       gradientUnits="userSpaceOnUse"
       id="linearGradient16076-144"
       xlink:href="#aigrd43-7"
       inkscape:collect="always" />
    <linearGradient
       inkscape:collect="always"
       xlink:href="#aigrd43-7"
       id="linearGradient16076-1-8"
       gradientUnits="userSpaceOnUse"
       gradientTransform="matrix(0.9983,-0.05841583,0.05841583,0.9983,-6.1355,5.3535)"
       x1="87.867203"
       y1="99.068398"
       x2="87.920502"
       y2="107.0603" />
  </defs>
  <sodipodi:namedview
     id="base"
     pagecolor="#ffffff"
     bordercolor="#666666"
     borderopacity="1.0"
     inkscape:pageopacity="0"
     inkscape:pageshadow="2"
     inkscape:zoom="1.0000001"
     inkscape:cx="734.2139"
     inkscape:cy="259.54132"
     inkscape:document-units="px"
     inkscape:current-layer="layer3"
     showgrid="false"
     width="1200px"
     inkscape:window-width="1920"
     inkscape:window-height="1054"
     inkscape:window-x="1920"
     inkscape:window-y="458"
     inkscape:window-maximized="0"
     fit-margin-top="0"
     fit-margin-left="0"
     fit-margin-right="0"
     fit-margin-bottom="0"
     showguides="true"
     inkscape:guide-bbox="true"
     inkscape:snap-global="false" />
  <metadata
     id="metadata7">
    <rdf:RDF>
      <cc:Work
         rdf:about="">
        <dc:format>image/svg+xml</dc:format>
        <dc:type
           rdf:resource="http://purl.org/dc/dcmitype/StillImage" />
        <dc:title />
      </cc:Work>
    </rdf:RDF>
  </metadata>
  <g
     inkscape:label="base"
     inkscape:groupmode="layer"
     id="layer1"
     transform="translate(-1254.7722,611.00312)"
     style="display:inline">
    <g
       style="display:none"
       id="Hilfslinien_anzeigen"
       transform="translate(1356.3684,-527.09075)" />
    <text
       id="text3894-1"
       y="-590.53345"
       x="1839.9657"
       style="font-style:normal;font-weight:normal;font-size:12.80000019px;line-height:0%;font-family:'Bitstream Vera Sans';fill:#000000;fill-opacity:1;stroke:none;stroke-width:1.06666672"
       xml:space="preserve"><tspan
         id="tspan3991-8"
         y="-590.53345"
         x="1839.9657"
         sodipodi:role="line"
         style="font-size:40.4179306px;line-height:1.25;stroke-width:1.06666672"> </tspan></text>
    <g
       style="fill:#d3d7cf;fill-opacity:1;stroke:none"
       id="g22145"
       transform="matrix(0.61789459,0,0,0.68094964,1175.3307,-722.43801)"
       inkscape:export-filename="/home/sylence/projects/Diplomarbeit/Paper/Bilder/topologie.png"
       inkscape:export-xdpi="160"
       inkscape:export-ydpi="160">
      <g
         style="fill:#d3d7cf;fill-opacity:1;stroke:none"
         id="g22147">
        <path
           style="fill:#d3d7cf;fill-opacity:1;stroke:none;stroke-width:1.06666672"
           d="m 1345.759,182.84119 c -53.9414,0.99641 -106.2647,34.54825 -142.0231,86.63493 -102.5416,8.70597 -181.8693,67.00512 -181.8693,137.52048 0,66.35367 70.2816,121.85417 164.0104,135.4293 1.7676,1.43744 3.5987,2.82781 5.5219,4.18236 4.5744,3.22188 9.4698,6.12129 14.675,8.7133 21.5851,23.05412 49.4164,38.10073 81.5326,41.62457 46.1941,5.06853 92.3328,-14.65201 129.1391,-50.43745 7.6454,-2.85283 15.2747,-5.95003 22.8829,-9.26097 27.5266,11.41618 59.3436,17.92447 93.2229,17.92447 104.5656,0 189.4305,-62.09989 189.4305,-138.61588 0,-47.91634 -33.2629,-90.16579 -83.8211,-115.0651 -4.1314,-20.34149 -15.5429,-38.08866 -34.7721,-51.63242 -36.1329,-25.44964 -92.9287,-31.0832 -155.0067,-19.56754 -22.1599,-25.90662 -51.6514,-42.92788 -86.0593,-46.70319 -5.6352,-0.61831 -11.2468,-0.85062 -16.8637,-0.74686 z"
           id="path22149"
           inkscape:connector-curvature="0" />
      </g>
      <path
         id="path22151"
         d="m 1345.7666,182.83333 c -53.9413,0.99641 -106.2749,34.54666 -142.0333,86.63334 -102.5415,8.70596 -181.8666,67.01797 -181.8666,137.53333 0,7.35069 0.8719,14.55794 2.5333,21.6 79.8026,-40.50654 209.9825,-66.9 356.9333,-66.9 137.4799,0 260.263,23.08734 340.8667,59.23333 0.062,-1.45263 0.066,-2.90315 0.066,-4.36666 0,-47.91632 -33.2418,-90.16736 -83.8,-115.06667 -4.1314,-20.3415 -15.5376,-38.08958 -34.7666,-51.63333 -36.133,-25.44965 -92.9554,-31.08233 -155.0334,-19.56667 -22.1599,-25.90662 -51.6255,-42.92469 -86.0332,-46.7 -5.6352,-0.61831 -11.25,-0.87043 -16.8668,-0.76667 z"
         style="fill:#d3d7cf;fill-opacity:1;stroke:none;stroke-width:1.06666672"
         inkscape:connector-curvature="0" />
    </g>
    <rect
       style="fill:#2e3436;fill-opacity:1;stroke:none;stroke-width:1.06666672"
       id="rect14397"
       width="367.32632"
       height="102.61531"
       x="1254.7722"
       y="-432.07666"
       inkscape:export-filename="/home/sylence/projects/Diplomarbeit/Paper/Bilder/topologie.png"
       inkscape:export-xdpi="160"
       inkscape:export-ydpi="160" />
    <path
       style="display:inline;fill:none;stroke:#2e3436;stroke-width:2.68099999;stroke-linecap:butt;stroke-linejoin:miter;stroke-miterlimit:4;stroke-dasharray:none;stroke-opacity:1"
       d="m 1645.3355,-358.38199 -35.6718,-0.10747"
       id="path16164"
       inkscape:connector-curvature="0"
       sodipodi:nodetypes="cc"
       inkscape:export-filename="/home/sylence/projects/Diplomarbeit/Paper/Bilder/topologie.png"
       inkscape:export-xdpi="160"
       inkscape:export-ydpi="160"
       inkscape:connector-type="polyline" />
    <path
       style="display:inline;fill:none;stroke:#2e3436;stroke-width:2.68053341;stroke-linecap:butt;stroke-linejoin:miter;stroke-miterlimit:4;stroke-dasharray:none;stroke-opacity:1"
       d="m 1685.2726,-424.35482 0.055,-128.12949"
       id="path19670"
       inkscape:connector-curvature="0"
       sodipodi:nodetypes="cc"
       inkscape:export-filename="/home/sylence/projects/Diplomarbeit/Paper/Bilder/topologie.png"
       inkscape:export-xdpi="160"
       inkscape:export-ydpi="160"
       inkscape:connector-type="polyline" />
    <path
       style="fill:#2e3436;stroke:#2e3436;stroke-width:4.04603863;stroke-linecap:butt;stroke-linejoin:miter;stroke-miterlimit:4;stroke-dasharray:4.04603872, 8.09207739;stroke-dashoffset:0;stroke-opacity:1"
       d="m 1495.1282,-568.99818 c 150.7781,0 153.21,0 153.21,0"
       id="path19674"
       inkscape:connector-curvature="0"
       inkscape:export-filename="/home/sylence/projects/Diplomarbeit/Paper/Bilder/topologie.png"
       inkscape:export-xdpi="160"
       inkscape:export-ydpi="160" />
    <path
       id="path9724"
       d="m 1681.7511,-578.77776 h 19.079 c 5.9777,0 6.3597,1.67518 6.3597,4.30361 0,2.62089 -0.382,4.3036 -6.3597,4.3036 h -19.079 c -6.0745,0 -6.3596,-1.67518 -6.3596,-4.3036 0,-2.62843 0.5196,-4.30361 6.3596,-4.30361 z m 22.2583,10.75902 h -9.5401 c -2.9199,0 -3.1781,2.21312 -3.1781,4.84155 0,2.62842 0.1409,4.84155 3.1781,4.84155 h 9.5401 c 2.9889,0 3.1804,-2.22066 3.1804,-4.84155 0,-2.62843 -0.1915,-4.84155 -3.1804,-4.84155 z m -42.5035,-2.15181 h 9.5401 c 2.9877,0 3.1803,-1.68271 3.1803,-4.3036 0,-2.62843 -0.1926,-4.30361 -3.1803,-4.30361 h -9.5401 c -2.92,0 -3.1804,1.67518 -3.1804,4.30361 0,2.62842 0.1432,4.3036 3.1804,4.3036 z m 22.3433,2.15181 h -19.08 c -5.84,0 -6.3597,2.21312 -6.3597,4.84155 0,2.62842 0.2851,4.84155 6.3597,4.84155 h 19.0789 c 5.9756,0 6.3597,-2.22066 6.3597,-4.84155 0,-2.62843 -0.3841,-4.84155 -6.3586,-4.84155 z m -4.4984,-12.25344 c 0.059,0.0205 0.1227,0.0258 0.1797,0.0269 0.2916,0.0193 0.5488,-0.23777 0.5488,-0.53794 0,-0.0668 -0.013,-0.13234 -0.035,-0.19151 -0.088,-1.16951 -0.5746,-9.17636 2.0377,-13.25726 0.1292,1.69669 0.9856,2.59723 1.7721,3.07062 0.034,0.0215 0.072,0.0377 0.1107,0.0506 0.02,0.006 2.0453,0.68535 2.7339,2.72094 0.6563,1.95062 -0.089,4.49297 -2.2164,7.55499 -0.1129,0.16354 -0.1409,0.42175 -0.048,0.5982 0.093,0.17644 0.297,0.29587 0.4982,0.29587 0.6412,0 4.8211,-2.75001 7.3881,-7.09986 2.6457,-4.48652 2.707,-9.27857 0.1722,-13.85977 -0.096,-0.17323 -0.2539,-0.27328 -0.4787,-0.27758 -0.1991,0.002 -0.3799,0.11623 -0.4713,0.29265 -0.2421,0.47231 -1.0232,1.66225 -1.8656,1.84194 -0.046,-0.30556 -0.013,-0.96615 0.015,-1.5138 0.1302,-2.62519 0.3486,-7.01917 -3.5322,-9.7412 -0.059,-0.028 -1.4568,-0.70473 -2.6553,-0.70473 -0.5229,0 -0.9522,0.12589 -1.2782,0.37657 -0.156,0.12053 -0.2335,0.31631 -0.2022,0.51105 0.03,0.19581 0.1657,0.3572 0.3507,0.4239 0.021,0.007 2.17,0.78433 2.5854,2.40895 0.2549,0.99412 -0.198,2.14964 -1.2879,3.38155 -0.2119,0.1786 -0.9425,0.69073 -1.4944,0.69073 -0.1453,0.005 -0.4907,0 -0.6929,-0.74022 -0.064,-0.23454 -0.2765,-0.39701 -0.5186,-0.39701 -0.6283,0 -3.658,3.90445 -3.6881,3.94425 -1.4643,1.98074 -2.0399,3.38586 -1.7613,4.29823 1.2911,4.2143 1.3772,6.54901 1.0081,6.81691 -1.5676,-0.73808 -3.6011,-2.16364 -3.3449,-2.92323 0.087,-0.25929 -0.033,-0.54225 -0.2809,-0.65845 -0.2463,-0.11727 -0.5422,-0.029 -0.6864,0.20228 -0.076,0.12158 -1.8398,3.02543 -0.6574,6.28325 0.9683,2.66608 3.5914,4.72106 7.796,6.11221 z"
       inkscape:connector-curvature="0"
       style="fill:#2e3436;stroke-width:1.06666672" />
    <path
       style="fill:#2e3436;stroke-width:1.06666672"
       inkscape:connector-curvature="0"
       d="m 1680.2371,-378.62067 h 22.3905 c 7.0153,0 7.4636,1.96594 7.4636,5.05059 0,3.07581 -0.4483,5.05059 -7.4636,5.05059 h -22.3905 c -7.1288,0 -7.4634,-1.96596 -7.4634,-5.05059 0,-3.08465 0.6098,-5.05059 7.4634,-5.05059 z m 26.1217,12.62648 h -11.1959 c -3.4268,0 -3.7298,2.59724 -3.7298,5.68189 0,3.08464 0.1654,5.68192 3.7298,5.68192 h 11.1959 c 3.5077,0 3.7324,-2.60611 3.7324,-5.68192 0,-3.08465 -0.2247,-5.68189 -3.7324,-5.68189 z m -49.8808,-2.5253 h 11.1958 c 3.5064,0 3.7324,-1.97478 3.7324,-5.05059 0,-3.08465 -0.226,-5.05059 -3.7324,-5.05059 h -11.1958 c -3.4269,0 -3.7324,1.96594 -3.7324,5.05059 0,3.08463 0.1679,5.05059 3.7324,5.05059 z m 26.2213,2.5253 h -22.3918 c -6.8536,0 -7.4634,2.59724 -7.4634,5.68189 0,3.08464 0.3346,5.68192 7.4634,5.68192 h 22.3905 c 7.0128,0 7.4636,-2.60611 7.4636,-5.68192 0,-3.08465 -0.4508,-5.68189 -7.4623,-5.68189 z m -5.2791,-14.38028 c 0.069,0.024 0.1439,0.0303 0.2108,0.0316 0.3422,0.0227 0.644,-0.27905 0.644,-0.63132 0,-0.0784 -0.015,-0.15532 -0.042,-0.22475 -0.1024,-1.3725 -0.6744,-10.76913 2.3913,-15.55834 0.1516,1.9912 1.1566,3.04804 2.0796,3.60359 0.041,0.0254 0.084,0.0442 0.13,0.0593 0.024,0.007 2.4003,0.8043 3.2084,3.19322 0.7702,2.28919 -0.1035,5.27282 -2.6011,8.86631 -0.1325,0.19194 -0.1653,0.49494 -0.057,0.70203 0.1087,0.20708 0.3484,0.34722 0.5846,0.34722 0.7525,0 5.6579,-3.22732 8.6705,-8.33219 3.1049,-5.26525 3.1769,-10.88905 0.202,-16.26541 -0.1123,-0.20329 -0.2979,-0.32072 -0.5618,-0.32576 -0.2336,0.002 -0.4457,0.1364 -0.553,0.34344 -0.2841,0.5543 -1.2008,1.95079 -2.1895,2.16166 -0.054,-0.35862 -0.015,-1.13386 0.018,-1.77656 0.1527,-3.08084 0.409,-8.23749 -4.1453,-11.432 -0.069,-0.0327 -1.7097,-0.82703 -3.1163,-0.82703 -0.6136,0 -1.1174,0.14775 -1.5,0.44193 -0.1831,0.14146 -0.274,0.37121 -0.2374,0.59976 0.035,0.2298 0.1945,0.4192 0.4116,0.49748 0.026,0.01 2.5468,0.92047 3.0342,2.82706 0.2992,1.16669 -0.2323,2.52276 -1.5114,3.96849 -0.2487,0.2096 -1.1061,0.81064 -1.7538,0.81064 -0.1704,0.006 -0.5758,0 -0.8131,-0.8687 -0.075,-0.27526 -0.3246,-0.46593 -0.6087,-0.46593 -0.7373,0 -4.293,4.58215 -4.3283,4.62886 -1.7185,2.32454 -2.394,3.97354 -2.067,5.04427 1.5152,4.94579 1.6163,7.68574 1.1832,8.00013 -1.8397,-0.86618 -4.2261,-2.53919 -3.9256,-3.43061 0.1024,-0.3043 -0.039,-0.63637 -0.3296,-0.77275 -0.2891,-0.13762 -0.6363,-0.0339 -0.8055,0.2374 -0.089,0.14268 -2.1592,3.55056 -0.7715,7.37384 1.1364,3.12884 4.2147,5.54048 9.1491,7.1731 z"
       id="path9733" />
    <path
       id="path9781"
       d="m 1469.0075,-576.37872 c -3.2859,-12.71939 -14.857,-22.14303 -28.5891,-22.14303 -13.7322,0 -25.3033,9.42364 -28.5892,22.14303 h -4.8187 v 14.76179 h 4.8187 c 3.2859,12.7187 14.857,22.14232 28.5892,22.14232 13.7321,0 25.3032,-9.42362 28.5891,-22.14232 h 4.8188 v -14.76179 z m -4.1808,17.44993 c -2.345,0.99578 -5.8892,-1.55616 -8.0932,0.9379 -2.204,2.49406 -1.036,3.36634 -3.108,7.89856 -2.0721,4.53219 0.7769,-5.82654 -6.9924,-4.01421 -5.7334,1.33807 -1.0325,7.25563 1.8257,10.26699 -2.5357,0.813 -5.2365,1.25761 -8.0404,1.25761 -3.8216,0 -7.4539,-0.81866 -10.7356,-2.28586 0.1207,-0.74526 -0.2004,-1.92664 -1.4361,-3.80037 -3.7553,-5.69737 0.6471,-0.518 0,-6.86323 -0.5506,-5.3925 -9.7017,-4.33179 -12.4372,-3.89213 -0.2802,-0.71703 -0.5328,-1.44815 -0.7501,-2.19412 h 50.7181 c -0.2682,0.91888 -0.5887,1.81444 -0.9508,2.68886 z m -44.6085,-15.21276 h 2.4884 l 0.7785,4.24285 c 0.2286,1.22093 0.4424,2.5484 0.6097,3.58654 h 0.03 c 0.1686,-1.11365 0.4122,-2.35008 0.6718,-3.61688 l 0.8695,-4.21251 h 2.4729 l 0.8235,4.33461 c 0.2287,1.20538 0.3967,2.30491 0.5492,3.4489 h 0.03 c 0.1518,-1.14399 0.3819,-2.35078 0.595,-3.57171 l 0.8384,-4.21251 h 2.3663 l -2.6557,10.28675 h -2.5187 l -0.8701,-4.42564 c -0.1977,-1.03813 -0.3671,-2.00005 -0.4884,-3.17581 h -0.029 c -0.1842,1.16024 -0.3522,2.13768 -0.5949,3.17581 l -0.9775,4.42564 h -2.549 l -2.4404,-10.28604 z m 13.6369,0 h 2.4877 l 0.7777,4.24285 c 0.23,1.22093 0.4439,2.5484 0.6118,3.58654 h 0.03 c 0.1672,-1.11365 0.4121,-2.35008 0.6726,-3.61688 l 0.8694,-4.21251 h 2.4715 l 0.8236,4.33461 c 0.23,1.20538 0.398,2.30491 0.5491,3.4489 h 0.03 c 0.1524,-1.14399 0.3817,-2.35078 0.5956,-3.57171 l 0.8398,-4.21251 h 2.365 l -2.6558,10.28675 h -2.518 l -0.8695,-4.42564 c -0.1989,-1.03813 -0.3663,-2.00005 -0.4883,-3.17581 h -0.03 c -0.1828,1.16024 -0.3507,2.13768 -0.5956,3.17581 l -0.9767,4.42564 h -2.5491 l -2.4419,-10.28604 z m 13.6368,0 h 2.4878 l 0.7784,4.24285 c 0.23,1.22093 0.4439,2.5484 0.6111,3.58654 h 0.029 c 0.168,-1.11365 0.4128,-2.35008 0.6726,-3.61688 l 0.8694,-4.21251 h 2.4721 l 0.8236,4.33461 c 0.2301,1.20538 0.3974,2.30491 0.5505,3.4489 h 0.029 c 0.1531,-1.14399 0.3818,-2.35078 0.5949,-3.57171 l 0.8384,-4.21251 h 2.367 l -2.6564,10.28675 h -2.5172 l -0.8695,-4.42564 c -0.199,-1.03813 -0.3671,-2.00005 -0.4884,-3.17581 h -0.031 c -0.182,1.16024 -0.35,2.13768 -0.5949,3.17581 l -0.9767,4.42564 h -2.5491 l -2.4418,-10.28604 z m -32.4325,-2.23717 c 1.8398,-6.30994 5.9761,-11.6481 11.437,-15.05184 1.7326,0.74102 5.1674,2.86105 4.9874,6.63529 -0.259,5.43837 8.9346,-1.42488 8.9346,-1.42488 0,0 4.2733,-3.36704 6.4744,2.07203 1.3261,3.27601 2.8088,-6.55765 5.5033,-8.38267 0.7459,0.38178 1.4728,0.79464 2.1757,1.24349 l 0.2795,0.18137 c 5.2076,3.41433 9.1434,8.61558 10.9254,14.72721 z"
       inkscape:connector-curvature="0"
       style="fill:#2e3436;fill-opacity:1;stroke-width:1.06666672" />
    <g
       transform="matrix(2.4923547,0,0,2.4923547,1408.6912,-393.73513)"
       id="g10612"
       style="display:block;fill:#eeeeec">
      <g
         style="fill:#eeeeec"
         id="g10614">
        <path
           style="fill:#eeeeec;stroke-width:1.06666672"
           inkscape:connector-curvature="0"
           d="M 2.1333333,20.266667 H 23.466667 V 16 H 2.1333333 Z m 2.1333334,-3.2 H 6.4 V 19.2 H 4.2666667 Z M 2.1333333,5.3333333 V 9.6 H 23.466667 V 5.3333333 Z M 6.4,8.5333333 H 4.2666667 V 6.4 H 6.4 Z M 2.1333333,14.933333 H 23.466667 V 10.666667 H 2.1333333 Z m 2.1333334,-3.2 H 6.4 v 2.133334 H 4.2666667 Z"
           id="path10617" />
      </g>
    </g>
    <g
       style="display:block;fill:#eeeeec"
       id="g10619"
       transform="matrix(2.4923547,0,0,2.4923547,1304.2163,-393.73513)">
      <g
         id="g10621"
         style="fill:#eeeeec">
        <path
           id="path10623"
           d="M 2.1333333,20.266667 H 23.466667 V 16 H 2.1333333 Z m 2.1333334,-3.2 H 6.4 V 19.2 H 4.2666667 Z M 2.1333333,5.3333333 V 9.6 H 23.466667 V 5.3333333 Z M 6.4,8.5333333 H 4.2666667 V 6.4 H 6.4 Z M 2.1333333,14.933333 H 23.466667 V 10.666667 H 2.1333333 Z m 2.1333334,-3.2 H 6.4 v 2.133334 H 4.2666667 Z"
           inkscape:connector-curvature="0"
           style="fill:#eeeeec;stroke-width:1.06666672" />
      </g>
    </g>
    <g
       style="fill:#2e3436"
       transform="matrix(1.7473544,0,0,1.7473544,1877.4596,-509.94623)"
       id="g10785">
      <path
         style="fill:#2e3436;stroke-width:1.06666672"
         inkscape:connector-curvature="0"
         d="M 19.2,25.6 H 10.666667 C 10.078933,25.6 9.6,26.065067 9.6,26.666667 c 0,0.445866 0,1.066666 0,1.066666 H 20.266667 V 26.666667 C 20.266667,26.078933 19.787733,25.6 19.2,25.6 Z"
         id="path10787" />
      <path
         style="fill:#2e3436;stroke-width:1.06666672"
         inkscape:connector-curvature="0"
         d="M 6.4,2.1333333 H 1.0666667 C 0.47786667,2.1333333 0,2.6112 0,3.2 v 23.466667 c 0,0.589866 0.47786667,1.066666 1.0666667,1.066666 H 6.4 c 0.5888,0 1.0666667,-0.4768 1.0666667,-1.066666 V 3.2 C 7.4666667,2.6112 6.9888,2.1333333 6.4,2.1333333 Z M 3.7333333,23.633067 c -0.976,0 -1.7664,-0.7904 -1.7664,-1.7664 0,-0.976 0.7904,-1.7664 1.7664,-1.7664 0.9749334,0 1.7664,0.7904 1.7664,1.7664 0,0.976 -0.7914666,1.7664 -1.7664,1.7664 z"
         id="path10789" />
      <path
         style="fill:#2e3436;stroke-width:1.06666672"
         inkscape:connector-curvature="0"
         d="M 24.533333,2.1333333 H 9.6 V 4.2666667 H 24.533333 C 25.121067,4.2666667 25.6,4.7456 25.6,5.3333333 V 17.066667 c 0,0.587733 -0.478933,1.066666 -1.066667,1.066666 H 9.6 V 22.4 h 2.133333 v 1.066667 c 0,0.587733 0.478934,1.066666 1.066667,1.066666 h 4.266667 c 0.587733,0 1.066666,-0.4672 1.066666,-1.066666 0,-0.168534 0,-0.587734 0,-1.066667 h 6.4 c 1.7664,0 3.2,-1.4336 3.2,-3.2 V 5.3333333 c 0,-1.7664 -1.4336,-3.2 -3.2,-3.2 z"
         id="path10791" />
    </g>
    <g
       id="g10793"
       transform="matrix(1.7473544,0,0,1.7473544,1980.6285,-560.22475)"
       style="fill:#2e3436">
      <path
         id="path10795"
         d="M 19.2,25.6 H 10.666667 C 10.078933,25.6 9.6,26.065067 9.6,26.666667 c 0,0.445866 0,1.066666 0,1.066666 H 20.266667 V 26.666667 C 20.266667,26.078933 19.787733,25.6 19.2,25.6 Z"
         inkscape:connector-curvature="0"
         style="fill:#2e3436;stroke-width:1.06666672" />
      <path
         id="path10797"
         d="M 6.4,2.1333333 H 1.0666667 C 0.47786667,2.1333333 0,2.6112 0,3.2 v 23.466667 c 0,0.589866 0.47786667,1.066666 1.0666667,1.066666 H 6.4 c 0.5888,0 1.0666667,-0.4768 1.0666667,-1.066666 V 3.2 C 7.4666667,2.6112 6.9888,2.1333333 6.4,2.1333333 Z M 3.7333333,23.633067 c -0.976,0 -1.7664,-0.7904 -1.7664,-1.7664 0,-0.976 0.7904,-1.7664 1.7664,-1.7664 0.9749334,0 1.7664,0.7904 1.7664,1.7664 0,0.976 -0.7914666,1.7664 -1.7664,1.7664 z"
         inkscape:connector-curvature="0"
         style="fill:#2e3436;stroke-width:1.06666672" />
      <path
         id="path10799"
         d="M 24.533333,2.1333333 H 9.6 V 4.2666667 H 24.533333 C 25.121067,4.2666667 25.6,4.7456 25.6,5.3333333 V 17.066667 c 0,0.587733 -0.478933,1.066666 -1.066667,1.066666 H 9.6 V 22.4 h 2.133333 v 1.066667 c 0,0.587733 0.478934,1.066666 1.066667,1.066666 h 4.266667 c 0.587733,0 1.066666,-0.4672 1.066666,-1.066666 0,-0.168534 0,-0.587734 0,-1.066667 h 6.4 c 1.7664,0 3.2,-1.4336 3.2,-3.2 V 5.3333333 c 0,-1.7664 -1.4336,-3.2 -3.2,-3.2 z"
         inkscape:connector-curvature="0"
         style="fill:#2e3436;stroke-width:1.06666672" />
    </g>
    <g
       style="fill:#2e3436"
       transform="matrix(1.7473544,0,0,1.7473544,2089.6741,-525.29098)"
       id="g10801">
      <path
         style="fill:#2e3436;stroke-width:1.06666672"
         inkscape:connector-curvature="0"
         d="M 19.2,25.6 H 10.666667 C 10.078933,25.6 9.6,26.065067 9.6,26.666667 c 0,0.445866 0,1.066666 0,1.066666 H 20.266667 V 26.666667 C 20.266667,26.078933 19.787733,25.6 19.2,25.6 Z"
         id="path10803" />
      <path
         style="fill:#2e3436;stroke-width:1.06666672"
         inkscape:connector-curvature="0"
         d="M 6.4,2.1333333 H 1.0666667 C 0.47786667,2.1333333 0,2.6112 0,3.2 v 23.466667 c 0,0.589866 0.47786667,1.066666 1.0666667,1.066666 H 6.4 c 0.5888,0 1.0666667,-0.4768 1.0666667,-1.066666 V 3.2 C 7.4666667,2.6112 6.9888,2.1333333 6.4,2.1333333 Z M 3.7333333,23.633067 c -0.976,0 -1.7664,-0.7904 -1.7664,-1.7664 0,-0.976 0.7904,-1.7664 1.7664,-1.7664 0.9749334,0 1.7664,0.7904 1.7664,1.7664 0,0.976 -0.7914666,1.7664 -1.7664,1.7664 z"
         id="path10805" />
      <path
         style="fill:#2e3436;stroke-width:1.06666672"
         inkscape:connector-curvature="0"
         d="M 24.533333,2.1333333 H 9.6 V 4.2666667 H 24.533333 C 25.121067,4.2666667 25.6,4.7456 25.6,5.3333333 V 17.066667 c 0,0.587733 -0.478933,1.066666 -1.066667,1.066666 H 9.6 V 22.4 h 2.133333 v 1.066667 c 0,0.587733 0.478934,1.066666 1.066667,1.066666 h 4.266667 c 0.587733,0 1.066666,-0.4672 1.066666,-1.066666 0,-0.168534 0,-0.587734 0,-1.066667 h 6.4 c 1.7664,0 3.2,-1.4336 3.2,-3.2 V 5.3333333 c 0,-1.7664 -1.4336,-3.2 -3.2,-3.2 z"
         id="path10807" />
    </g>
    <path
       inkscape:export-ydpi="160"
       inkscape:export-xdpi="160"
       inkscape:export-filename="/home/sylence/projects/Diplomarbeit/Paper/Bilder/topologie.png"
       sodipodi:nodetypes="cc"
       inkscape:connector-curvature="0"
       id="path3215"
       d="m 1805.3019,-429.08299 v 70.20591"
       style="display:inline;fill:none;stroke:#2e3436;stroke-width:2.68053341;stroke-linecap:butt;stroke-linejoin:miter;stroke-miterlimit:4;stroke-dasharray:none;stroke-opacity:1"
       inkscape:connector-type="polyline" />
    <path
       id="path3974"
       d="m 1992.3696,-439.62163 h 22.3905 c 7.0153,0 7.4636,1.96594 7.4636,5.05058 0,3.07581 -0.4483,5.05059 -7.4636,5.05059 h -22.3905 c -7.1289,0 -7.4635,-1.96595 -7.4635,-5.05059 0,-3.08464 0.6098,-5.05058 7.4635,-5.05058 z m 26.1217,12.62647 h -11.1959 c -3.4268,0 -3.7299,2.59724 -3.7299,5.68189 0,3.08465 0.1654,5.68192 3.7299,5.68192 h 11.1959 c 3.5075,0 3.7324,-2.60611 3.7324,-5.68192 0,-3.08465 -0.2249,-5.68189 -3.7324,-5.68189 z m -49.8808,-2.5253 h 11.1958 c 3.5063,0 3.7324,-1.97478 3.7324,-5.05059 0,-3.08464 -0.2261,-5.05058 -3.7324,-5.05058 h -11.1958 c -3.4269,0 -3.7324,1.96594 -3.7324,5.05058 0,3.08464 0.1679,5.05059 3.7324,5.05059 z m 26.2213,2.5253 H 1972.44 c -6.8537,0 -7.4635,2.59724 -7.4635,5.68189 0,3.08465 0.3346,5.68192 7.4635,5.68192 h 22.3905 c 7.0127,0 7.4635,-2.60611 7.4635,-5.68192 0,-3.08465 -0.4508,-5.68189 -7.4622,-5.68189 z m -5.2792,-14.38029 c 0.069,0.024 0.1439,0.0303 0.2109,0.0316 0.3422,0.0227 0.644,-0.27905 0.644,-0.63132 0,-0.0784 -0.015,-0.15532 -0.042,-0.22475 -0.1024,-1.3725 -0.6744,-10.76913 2.3913,-15.55834 0.1516,1.9912 1.1566,3.04804 2.0796,3.6036 0.041,0.0253 0.084,0.0442 0.13,0.0593 0.025,0.007 2.4002,0.8043 3.2083,3.19323 0.7703,2.28918 -0.1034,5.27281 -2.601,8.8663 -0.1325,0.19194 -0.1654,0.49495 -0.057,0.70204 0.1086,0.20708 0.3485,0.34722 0.5847,0.34722 0.7525,0 5.6579,-3.22733 8.6705,-8.3322 3.1048,-5.26524 3.1768,-10.88905 0.202,-16.26541 -0.1123,-0.20329 -0.2979,-0.32072 -0.5618,-0.32576 -0.2336,0.002 -0.4458,0.1364 -0.5531,0.34345 -0.284,0.55429 -1.2007,1.95078 -2.1894,2.16165 -0.054,-0.35861 -0.015,-1.13385 0.017,-1.77656 0.1528,-3.08084 0.4091,-8.23748 -4.1452,-11.432 -0.069,-0.0327 -1.7097,-0.82702 -3.1163,-0.82702 -0.6136,0 -1.1174,0.14774 -1.5,0.44192 -0.1831,0.14146 -0.2739,0.37121 -0.2374,0.59976 0.035,0.2298 0.1945,0.4192 0.4117,0.49748 0.026,0.01 2.5467,0.92048 3.0341,2.82706 0.2992,1.16669 -0.2323,2.52278 -1.5114,3.96849 -0.2487,0.2096 -1.1061,0.81064 -1.7538,0.81064 -0.1704,0.006 -0.5758,0 -0.8131,-0.8687 -0.075,-0.27526 -0.3246,-0.46593 -0.6086,-0.46593 -0.7374,0 -4.293,4.58215 -4.3284,4.62887 -1.7185,2.32453 -2.394,3.97353 -2.0669,5.04426 1.5152,4.94579 1.6162,7.68574 1.1831,8.00013 -1.8397,-0.86618 -4.2261,-2.53919 -3.9256,-3.43061 0.1024,-0.30429 -0.04,-0.63636 -0.3295,-0.77275 -0.2892,-0.13762 -0.6364,-0.0339 -0.8056,0.2374 -0.089,0.14269 -2.1591,3.55056 -0.7715,7.37384 1.1364,3.12885 4.2147,5.54048 9.1491,7.1731 z"
       inkscape:connector-curvature="0"
       style="fill:#2e3436;stroke-width:1.06666672" />
    <path
       inkscape:export-ydpi="160"
       inkscape:export-xdpi="160"
       inkscape:export-filename="/home/sylence/projects/Diplomarbeit/Paper/Bilder/topologie.png"
       sodipodi:nodetypes="cc"
       inkscape:connector-curvature="0"
       id="path3976"
       d="m 1806.6403,-358.38002 -88.7152,-0.1114"
       style="display:inline;fill:none;stroke:#2e3436;stroke-width:2.68053341;stroke-linecap:butt;stroke-linejoin:miter;stroke-miterlimit:4;stroke-dasharray:none;stroke-opacity:1"
       inkscape:connector-type="polyline" />
    <path
       style="display:inline;fill:none;stroke:#2e3436;stroke-width:2.68053341;stroke-linecap:butt;stroke-linejoin:miter;stroke-miterlimit:4;stroke-dasharray:none;stroke-opacity:1"
       d="m 1956.7499,-427.64351 -151.9768,-0.11141"
       id="path3986"
       inkscape:connector-curvature="0"
       sodipodi:nodetypes="cc"
       inkscape:export-filename="/home/sylence/projects/Diplomarbeit/Paper/Bilder/topologie.png"
       inkscape:export-xdpi="160"
       inkscape:export-ydpi="160"
       inkscape:connector-type="polyline" />
  </g>
  <g
     inkscape:groupmode="layer"
     id="layer3"
     inkscape:label="honeysens"
     style="display:inline"
     transform="translate(-24.117404,-34.32829)">
    <g
       id="g19643"
       transform="translate(210.49997,1011.4999)">
      <rect
         style="fill:#ef2929;fill-opacity:1;stroke:none"
         id="rect20302"
         width="58.557198"
         height="56.980125"
         x="698.70197"
         y="-837.66675"
         inkscape:export-filename="/home/sylence/projects/Diplomarbeit/Paper/Bilder/topologie.png"
         inkscape:export-xdpi="160"
         inkscape:export-ydpi="160"
         ry="6.75"
         rx="6.5" />
      <g
         style="fill:#eeeeec"
         transform="matrix(0.05485727,0,0,0.05485727,705.51854,-821.25072)"
         id="g10673">
        <path
           style="fill:#eeeeec"
           inkscape:connector-curvature="0"
           d="M 731.1,380.8 C 731.1,380.8 547.2,198 400,198 252.8,198 68.9,380.8 68.9,380.8 c -11.3,10.6 -11.4,28 0,38.4 0,0 183.9,182.8 331.1,182.8 147.2,0 331.1,-182.8 331.1,-182.8 11.2,-10.6 11.4,-27.9 0,-38.4 z M 401.4,547.2 c -80.9,0 -146.6,-65.6 -146.6,-146.6 0,-81 65.6,-146.6 146.6,-146.6 81,0 146.6,65.7 146.6,146.6 0,80.9 -65.7,146.6 -146.6,146.6 z"
           id="path10675" />
        <path
           style="fill:#eeeeec"
           inkscape:connector-curvature="0"
           d="m 399.7,305.8 c -51.4,0 -93.1,41.9 -93.1,93.4 0,51.5 41.7,93.4 93.1,93.4 51.4,0 93.1,-41.9 93.1,-93.4 0,-51.5 -41.7,-93.4 -93.1,-93.4 z m 35.1,93.7 c -15.9,0 -28.9,-13 -28.9,-29.1 0,-16.1 13,-29.1 28.9,-29.1 15.9,0 28.9,13 28.9,29.1 0,16.1 -12.8,29.1 -28.9,29.1 z"
           id="path10677" />
      </g>
      <g
         transform="translate(558.65419,-1278.5283)"
         style="font-style:normal;font-weight:normal;font-size:12.84203911px;font-family:'Bitstream Vera Sans';fill:#eeeeec;fill-opacity:1;stroke:none"
         id="text10833">
        <path
           inkscape:connector-curvature="0"
           d="m 153.23959,448.54323 v 1.23529 q -0.72111,-0.34488 -1.3607,-0.51418 -0.63959,-0.1693 -1.23529,-0.1693 -1.03464,0 -1.59899,0.40131 -0.55808,0.40131 -0.55808,1.14124 0,0.62078 0.36997,0.94057 0.37623,0.31353 1.41713,0.50792 l 0.76501,0.15676 q 1.41714,0.26963 2.08808,0.95312 0.67722,0.67722 0.67722,1.81845 0,1.36071 -0.9155,2.06301 -0.90922,0.7023 -2.67124,0.7023 -0.66468,0 -1.41714,-0.1505 -0.74619,-0.15049 -1.54882,-0.4452 v -1.30427 q 0.77128,0.43266 1.5112,0.65213 0.73992,0.21947 1.45476,0.21947 1.0848,0 1.67423,-0.4264 0.58943,-0.42639 0.58943,-1.21648 0,-0.68976 -0.4264,-1.07853 -0.42012,-0.38877 -1.38578,-0.58316 l -0.77128,-0.15049 q -1.41714,-0.28218 -2.05046,-0.88415 -0.63332,-0.60197 -0.63332,-1.67423 0,-1.24156 0.8716,-1.9564 0.87787,-0.71484 2.41415,-0.71484 0.65841,0 1.3419,0.11914 0.68348,0.11914 1.39832,0.35742 z"
           id="path6400" />
        <path
           inkscape:connector-curvature="0"
           d="m 161.73616,453.79793 v 0.56435 h -5.30487 q 0.0753,1.1914 0.71484,1.81845 0.64587,0.62078 1.79337,0.62078 0.66468,0 1.28546,-0.16303 0.62705,-0.16303 1.24156,-0.4891 v 1.09107 q -0.62078,0.26336 -1.27291,0.40131 -0.65214,0.13796 -1.32308,0.13796 -1.6805,0 -2.66498,-0.97821 -0.9782,-0.9782 -0.9782,-2.64616 0,-1.72439 0.92804,-2.73395 0.93431,-1.01582 2.51448,-1.01582 1.41714,0 2.23858,0.91549 0.82771,0.90923 0.82771,2.47686 z m -1.15378,-0.33861 q -0.0125,-0.94685 -0.53299,-1.51119 -0.51419,-0.56435 -1.36698,-0.56435 -0.96566,0 -1.54882,0.54553 -0.57689,0.54554 -0.66468,1.53628 l 4.11347,-0.006 z"
           id="path6402" />
        <path
           inkscape:connector-curvature="0"
           d="m 169.46772,453.35899 v 4.23888 h -1.15378 v -4.20125 q 0,-0.99702 -0.38877,-1.49239 -0.38877,-0.49537 -1.16632,-0.49537 -0.93431,0 -1.47357,0.5957 -0.53927,0.5957 -0.53927,1.62407 v 3.96924 h -1.16005 v -7.02299 h 1.16005 v 1.09107 q 0.41386,-0.63332 0.97193,-0.94685 0.56435,-0.31352 1.298,-0.31352 1.21021,0 1.831,0.75246 0.62078,0.74619 0.62078,2.20095 z"
           id="path6404" />
        <path
           inkscape:connector-curvature="0"
           d="m 176.2587,450.78181 v 1.09107 q -0.4891,-0.25082 -1.01583,-0.37623 -0.52672,-0.12541 -1.09107,-0.12541 -0.85906,0 -1.29173,0.26336 -0.42639,0.26336 -0.42639,0.79009 0,0.40131 0.30725,0.63332 0.30726,0.22574 1.2353,0.43266 l 0.39504,0.0878 q 1.22902,0.26336 1.7432,0.74619 0.52046,0.47656 0.52046,1.33563 0,0.9782 -0.77755,1.54882 -0.77127,0.57062 -2.12571,0.57062 -0.56434,0 -1.17885,-0.11287 -0.60825,-0.1066 -1.28546,-0.32607 v -1.1914 q 0.63959,0.33234 1.26037,0.50164 0.62079,0.16303 1.22903,0.16303 0.81517,0 1.2541,-0.2759 0.43894,-0.28217 0.43894,-0.79009 0,-0.47029 -0.3198,-0.72111 -0.31352,-0.25082 -1.38578,-0.48283 l -0.40132,-0.0941 q -1.07226,-0.22574 -1.54882,-0.68976 -0.47656,-0.47029 -0.47656,-1.28546 0,-0.99074 0.7023,-1.53001 0.7023,-0.53926 1.99403,-0.53926 0.63959,0 1.20394,0.0941 0.56435,0.0941 1.04091,0.28218 z"
           id="path6406" />
        <path
           inkscape:connector-curvature="0"
           d="m 181.19987,451.38378 q -0.92803,0 -1.4673,0.72738 -0.53926,0.72111 -0.53926,1.98149 0,1.26037 0.53299,1.98775 0.53927,0.72111 1.47357,0.72111 0.92177,0 1.46104,-0.72738 0.53926,-0.72738 0.53926,-1.98148 0,-1.24784 -0.53926,-1.97522 -0.53927,-0.73365 -1.46104,-0.73365 z m 0,-0.9782 q 1.50493,0 2.36399,0.9782 0.85906,0.9782 0.85906,2.70887 0,1.72439 -0.85906,2.70886 -0.85906,0.97821 -2.36399,0.97821 -1.51119,0 -2.37026,-0.97821 -0.85279,-0.98447 -0.85279,-2.70886 0,-1.73067 0.85279,-2.70887 0.85907,-0.9782 2.37026,-0.9782 z"
           id="path6408" />
        <path
           inkscape:connector-curvature="0"
           d="m 190.39874,451.65341 q -0.19439,-0.11287 -0.4264,-0.16303 -0.22574,-0.0564 -0.50164,-0.0564 -0.9782,0 -1.50493,0.6396 -0.52045,0.63332 -0.52045,1.82472 v 3.69961 h -1.16005 v -7.02299 h 1.16005 v 1.09107 q 0.36369,-0.63959 0.94685,-0.94685 0.58316,-0.31352 1.41714,-0.31352 0.11914,0 0.26336,0.0188 0.14422,0.0125 0.3198,0.0439 l 0.006,1.18513 z"
           id="path6410" />
      </g>
    </g>
    <rect
       y="137.47375"
       x="24.117439"
       height="53.695747"
       width="367.32587"
       id="rect16973"
       style="fill:#ef2929;fill-opacity:1;stroke:none;stroke-width:1.06666672"
       inkscape:export-filename="/home/sylence/projects/Diplomarbeit/Paper/Bilder/topologie.png"
       inkscape:export-xdpi="160"
       inkscape:export-ydpi="160" />
    <g
       id="g10658"
       transform="matrix(0.05485727,0,0,0.05485727,272.01015,251.83841)"
       style="fill:#ef2929">
      <path
         id="path10660-9"
         d="m 779.84,406.18667 c 0,0 -196.16,-194.98667 -353.17333,-194.98667 -157.01334,0 -353.173337,194.98667 -353.173337,194.98667 -12.053333,11.30666 -12.16,29.86666 0,40.96 0,0 196.159997,194.98666 353.173337,194.98666 157.01333,0 353.17333,-194.98666 353.17333,-194.98666 11.94667,-11.30667 12.16,-29.76 0,-40.96 z M 428.16,583.68 c -86.29333,0 -156.37333,-69.97333 -156.37333,-156.37333 0,-86.4 69.97333,-156.37334 156.37333,-156.37334 86.4,0 156.37333,70.08 156.37333,156.37334 0,86.29333 -70.08,156.37333 -156.37333,156.37333 z"
         inkscape:connector-curvature="0"
         style="fill:#ef2929;stroke-width:1.06666672" />
      <path
         id="path10662"
         d="m 426.34667,326.18667 c -54.82667,0 -99.30667,44.69333 -99.30667,99.62666 0,54.93334 44.48,99.62667 99.30667,99.62667 54.82666,0 99.30666,-44.69333 99.30666,-99.62667 0,-54.93333 -44.48,-99.62666 -99.30666,-99.62666 z m 37.44,99.94666 c -16.96,0 -30.82667,-13.86666 -30.82667,-31.04 0,-17.17333 13.86667,-31.04 30.82667,-31.04 16.96,0 30.82666,13.86667 30.82666,31.04 0,17.17334 -13.65333,31.04 -30.82666,31.04 z"
         inkscape:connector-curvature="0"
         style="fill:#ef2929;stroke-width:1.06666672" />
    </g>
    <text
       xml:space="preserve"
       style="font-style:normal;font-weight:normal;font-size:23.02415848px;line-height:1.25;font-family:sans-serif;letter-spacing:0px;word-spacing:0px;fill:#ffffff;fill-opacity:1;stroke:none;stroke-width:1"
       x="163.81209"
       y="249.31613"
       id="text6998"><tspan
         sodipodi:role="line"
         id="tspan6996"
         x="163.81209"
         y="249.31613"
         style="fill:#ffffff;stroke-width:1">Servers</tspan></text>
    <text
       id="text7002"
       y="172.47116"
       x="41.624744"
       style="font-style:normal;font-weight:normal;font-size:23.02415848px;line-height:1.25;font-family:sans-serif;letter-spacing:0px;word-spacing:0px;fill:#ffffff;fill-opacity:1;stroke:none;stroke-width:1"
       xml:space="preserve"><tspan
         style="fill:#ffffff;stroke-width:1"
         y="172.47116"
         x="41.624744"
         id="tspan7000"
         sodipodi:role="line">HoneySens Server</tspan></text>
    <text
       id="text7841"
       y="273.31613"
       x="685.81201"
       style="font-style:normal;font-weight:normal;font-size:23.02415848px;line-height:1.25;font-family:sans-serif;letter-spacing:0px;word-spacing:0px;fill:#000000;fill-opacity:1;stroke:none;stroke-width:1"
       xml:space="preserve"><tspan
         style="fill:#000000;stroke-width:1"
         y="273.31613"
         x="685.81201"
         id="tspan7839"
         sodipodi:role="line">Production Network</tspan></text>
    <text
       xml:space="preserve"
       style="font-style:normal;font-weight:normal;font-size:12.64040756px;line-height:1.25;font-family:sans-serif;letter-spacing:0px;word-spacing:0px;fill:#000000;fill-opacity:1;stroke:none;stroke-width:0.54900628"
       x="600.33466"
       y="236.33199"
       id="text7849"><tspan
         sodipodi:role="line"
         id="tspan7847"
         x="600.33466"
         y="236.33199"
         style="fill:#000000;stroke-width:0.54900628">192.168.0.0/24</tspan></text>
    <text
       id="text7853"
       y="233.76141"
       x="307.25928"
       style="font-style:normal;font-weight:normal;font-size:12.64040756px;line-height:1.25;font-family:sans-serif;letter-spacing:0px;word-spacing:0px;fill:#ffffff;fill-opacity:1;stroke:none;stroke-width:0.54900628"
       xml:space="preserve"><tspan
         style="fill:#ffffff;stroke-width:0.54900628"
         y="233.76141"
         x="307.25928"
         id="tspan7851"
         sodipodi:role="line">10.0.1.0/24</tspan></text>
    <circle
       style="fill:#fcaf3e;stroke:none;stroke-width:2.68000007;stroke-miterlimit:4;stroke-dasharray:none;stroke-opacity:1"
       id="path8145"
       cx="485.1351"
       cy="244.54814"
       r="13.499999" />
    <text
       id="text8143"
       y="251.26108"
       x="478.84033"
       style="font-style:normal;font-weight:normal;font-size:18.4167347px;line-height:1.25;font-family:sans-serif;letter-spacing:0px;word-spacing:0px;fill:#ffffff;fill-opacity:1;stroke:none;stroke-width:1"
       xml:space="preserve"><tspan
         style="fill:#ffffff;stroke-width:1"
         y="251.26108"
         x="478.84033"
         id="tspan8141"
         sodipodi:role="line">B</tspan></text>
    <circle
       r="13.499999"
       cy="185.06538"
       cx="798.26202"
       id="circle8147"
       style="fill:#fcaf3e;stroke:none;stroke-width:2.68000007;stroke-miterlimit:4;stroke-dasharray:none;stroke-opacity:1" />
    <text
       xml:space="preserve"
       style="font-style:normal;font-weight:normal;font-size:18.4167347px;line-height:1.25;font-family:sans-serif;letter-spacing:0px;word-spacing:0px;fill:#ffffff;fill-opacity:1;stroke:none;stroke-width:1"
       x="791.96729"
       y="191.77832"
       id="text8151"><tspan
         sodipodi:role="line"
         id="tspan8149"
         x="791.96729"
         y="191.77832"
         style="fill:#ffffff;stroke-width:1">A</tspan></text>
    <text
       id="text8166"
       y="168.42607"
       x="307.25928"
       style="font-style:normal;font-weight:normal;font-size:12.64040756px;line-height:1.25;font-family:sans-serif;letter-spacing:0px;word-spacing:0px;fill:#ffffff;fill-opacity:1;stroke:none;stroke-width:0.54900628"
       xml:space="preserve"><tspan
         style="fill:#ffffff;stroke-width:0.54900628"
         y="168.42607"
         x="307.25928"
         id="tspan8164"
         sodipodi:role="line">10.1.1.3/24</tspan></text>
    <text
       id="text3894-3-0"
       y="84.012352"
       x="409.83841"
       style="font-style:normal;font-weight:normal;line-height:0%;font-family:'Bitstream Vera Sans';fill:#000000;fill-opacity:1;stroke:none"
       xml:space="preserve"><tspan
         id="tspan3991-5-6"
         y="84.012352"
         x="409.83841"
         sodipodi:role="line"
         style="font-size:30.94940758px;line-height:1.25"> </tspan></text>
  </g>
  <g
     inkscape:groupmode="layer"
     id="layer4"
     inkscape:label="interconnect"
     style="display:inline"
     transform="translate(-24.117404,-34.32829)">
    <path
       style="display:inline;fill:none;stroke:#ef2929;stroke-width:2.68000007;stroke-linecap:butt;stroke-linejoin:miter;stroke-miterlimit:4;stroke-dasharray:none;stroke-opacity:1;marker-end:url(#Arrow1Mend)"
       d="m 909.72503,212.63517 -108.6924,-0.11551"
       id="path8111"
       inkscape:connector-curvature="0"
       sodipodi:nodetypes="cc"
       inkscape:export-filename="/home/sylence/projects/Diplomarbeit/Paper/Bilder/topologie.png"
       inkscape:export-xdpi="160"
       inkscape:export-ydpi="160"
       inkscape:connector-type="polyline" />
    <path
       inkscape:export-ydpi="160"
       inkscape:export-xdpi="160"
       inkscape:export-filename="/home/sylence/projects/Diplomarbeit/Paper/Bilder/topologie.png"
       sodipodi:nodetypes="cc"
       inkscape:connector-curvature="0"
       id="path8109"
       d="m 726.09628,213.42123 -157.04586,-0.1114"
       style="display:inline;fill:none;stroke:#ef2929;stroke-width:2.68053341;stroke-linecap:butt;stroke-linejoin:miter;stroke-miterlimit:4;stroke-dasharray:none;stroke-opacity:1"
       inkscape:connector-type="polyline" />
    <path
       style="display:inline;fill:none;stroke:#ef2929;stroke-width:2.51120543;stroke-linecap:butt;stroke-linejoin:miter;stroke-miterlimit:4;stroke-dasharray:none;stroke-opacity:1"
       d="m 570.38034,212.85432 v 62.94599"
       id="path8107"
       inkscape:connector-curvature="0"
       sodipodi:nodetypes="cc"
       inkscape:export-filename="/home/sylence/projects/Diplomarbeit/Paper/Bilder/topologie.png"
       inkscape:export-xdpi="160"
       inkscape:export-ydpi="160"
       inkscape:connector-type="polyline" />
    <path
       style="display:inline;fill:none;stroke:#ef2929;stroke-width:2.67982197;stroke-linecap:butt;stroke-linejoin:miter;stroke-miterlimit:4;stroke-dasharray:none;stroke-opacity:1;marker-end:url(#marker8135)"
       d="m 571.73213,274.75401 -83.84273,-0.1114"
       id="path8105"
       inkscape:connector-curvature="0"
       sodipodi:nodetypes="cc"
       inkscape:export-filename="/home/sylence/projects/Diplomarbeit/Paper/Bilder/topologie.png"
       inkscape:export-xdpi="160"
       inkscape:export-ydpi="160"
       inkscape:connector-type="polyline" />
    <path
       inkscape:export-ydpi="160"
       inkscape:export-xdpi="160"
       inkscape:export-filename="/home/sylence/projects/Diplomarbeit/Paper/Bilder/topologie.png"
       sodipodi:nodetypes="cc"
       inkscape:connector-curvature="0"
       id="path8121"
       d="m 450.35109,220.96215 0.0555,-57.88676"
       style="display:inline;fill:none;stroke:#ef2929;stroke-width:2.68053341;stroke-linecap:butt;stroke-linejoin:miter;stroke-miterlimit:4;stroke-dasharray:none;stroke-opacity:1"
       inkscape:connector-type="polyline" />
    <path
       inkscape:export-ydpi="160"
       inkscape:export-xdpi="160"
       inkscape:export-filename="/home/sylence/projects/Diplomarbeit/Paper/Bilder/topologie.png"
       sodipodi:nodetypes="cc"
       inkscape:connector-curvature="0"
       id="path8124"
       d="m 320.26631,274.75618 93.2836,-0.111"
       style="display:inline;fill:none;stroke:#ef2929;stroke-width:2.68000007;stroke-linecap:butt;stroke-linejoin:miter;stroke-miterlimit:4;stroke-dasharray:none;stroke-opacity:1;marker-end:url(#marker8131)"
       inkscape:connector-type="polyline" />
    <path
       style="display:inline;fill:none;stroke:#ef2929;stroke-width:2.68053341;stroke-linecap:butt;stroke-linejoin:miter;stroke-miterlimit:4;stroke-dasharray:none;stroke-opacity:1;marker-end:url(#marker8139)"
       d="m 451.37284,164.37734 -49.12623,-0.1114"
       id="path8126"
       inkscape:connector-curvature="0"
       sodipodi:nodetypes="cc"
       inkscape:export-filename="/home/sylence/projects/Diplomarbeit/Paper/Bilder/topologie.png"
       inkscape:export-xdpi="160"
       inkscape:export-ydpi="160"
       inkscape:connector-type="polyline" />
  </g>
</svg>
